<?xml version="1.0" encoding="UTF-8" standalone="no"?>
<!-- Created with Inkscape (http://www.inkscape.org/) -->

<svg
   width="64"
   height="64"
   viewBox="0 0 16.933335 16.933333"
   version="1.1"
   id="svg5"
   inkscape:version="1.1.1 (3bf5ae0d25, 2021-09-20)"
   sodipodi:docname="logo-key.svg"
   inkscape:export-filename="C:\Users\alca0\Desktop\DEV\DJANGO\drugstore\setup\static\images\logo.png"
   inkscape:export-xdpi="96"
   inkscape:export-ydpi="96"
   xmlns:inkscape="http://www.inkscape.org/namespaces/inkscape"
   xmlns:sodipodi="http://sodipodi.sourceforge.net/DTD/sodipodi-0.dtd"
   xmlns="http://www.w3.org/2000/svg"
   xmlns:svg="http://www.w3.org/2000/svg">
  <sodipodi:namedview
     id="namedview7"
     pagecolor="#505050"
     bordercolor="#eeeeee"
     borderopacity="1"
     inkscape:pageshadow="0"
     inkscape:pageopacity="0"
     inkscape:pagecheckerboard="0"
     inkscape:document-units="mm"
     showgrid="false"
     inkscape:zoom="17.375939"
     inkscape:cx="60.284511"
     inkscape:cy="34.847037"
     inkscape:window-width="3200"
     inkscape:window-height="1261"
     inkscape:window-x="2391"
     inkscape:window-y="-9"
     inkscape:window-maximized="1"
     inkscape:current-layer="layer1"
     units="px" />
  <defs
     id="defs2" />
  <g
     inkscape:label="Layer 1"
     inkscape:groupmode="layer"
     id="layer1"
     transform="translate(-74.569235,-135.2932)">
    <g
       id="g1044"
       transform="matrix(0.22408322,0,0,0.22408322,58.398511,123.01014)">
      <path
         style="fill:#4d9cdd;fill-opacity:1;stroke-width:0.264583"
         d="m 102.48812,126.81823 c -4.391528,-0.73772 -7.63972,-1.86964 -11.664574,-4.0648 -8.77583,-4.78637 -15.17319,-14.00826 -16.669866,-24.029856 -0.518197,-3.469798 -0.38294,-9.245004 0.287586,-12.279322 2.289433,-10.360335 8.732372,-18.717108 18.038947,-23.397302 2.725573,-1.370666 5.409416,-2.303904 8.552697,-2.973983 3.13703,-0.668747 10.09214,-0.668747 13.22917,0 10.50994,2.240489 18.93128,8.676346 23.66188,18.083169 2.5444,5.059546 3.45342,9.051899 3.45342,15.167282 0,3.210843 -0.12682,4.960514 -0.47943,6.614583 -1.91955,9.004399 -6.95795,16.526269 -14.49223,21.635549 -3.07786,2.08721 -7.8517,4.07533 -11.87906,4.94716 -2.72101,0.58903 -9.33079,0.75239 -12.03854,0.29752 z m 7.02885,-20.80412 c 0.45102,-0.24138 0.51177,-0.57325 0.51177,-2.79552 0,-3.547101 -0.002,-3.545172 3.06942,-3.545172 3.40232,0 3.54517,-0.09556 3.54517,-2.371662 0,-2.541352 -0.15304,-2.655421 -3.56247,-2.655421 -2.24616,0 -2.75943,-0.07429 -2.89152,-0.418516 -0.0883,-0.230182 -0.1606,-1.602348 -0.1606,-3.049256 0,-2.580476 -0.013,-2.635673 -0.67868,-2.888777 -0.87043,-0.330938 -2.5347,-0.330938 -3.40513,0 -0.66572,0.253104 -0.67868,0.308301 -0.67868,2.888777 0,1.446908 -0.0723,2.819074 -0.1606,3.049256 -0.13209,0.344226 -0.64536,0.418516 -2.89152,0.418516 -3.409433,0 -3.562468,0.114069 -3.562468,2.655421 0,2.276097 0.142852,2.371662 3.545168,2.371662 3.07074,0 3.06942,-0.0015 3.06942,3.541332 0,2.11877 0.0734,2.56053 0.46302,2.78747 0.60691,0.3535 3.13457,0.36143 3.7877,0.0119 z"
         id="path1052" />
      <path
         style="fill:#3282c4;fill-opacity:1;stroke-width:0.264583"
         d="m 73.926924,95.699442 c -0.208468,-2.664859 -0.120091,-4.393052 0.136943,-6.907356 0.03195,-0.312511 0.291188,-0.520432 0.561594,-0.756814 12.251037,-4.857477 23.264474,-9.477249 23.989421,-10.110311 0.48911,-0.427115 1.181471,-0.88766 1.538588,-1.023433 0.35711,-0.135772 3.74893,-0.246859 7.53739,-0.246859 7.56917,0 8.16607,0.103541 9.03023,1.566452 0.3452,0.584384 0.45139,1.392548 0.45139,3.435308 v 2.671156 h 1.99289 c 1.10579,0 2.3859,0.164218 2.87584,0.368926 1.79267,0.749029 1.74587,0.413421 1.74587,12.518062 v 10.917167 l -0.72761,0.80519 c -0.56808,0.62866 -1.06447,0.8591 -2.26411,1.0511 -0.91184,0.14594 -7.39097,2.56323 -15.93684,5.94586 -7.920172,3.13497 -15.238739,5.96462 -15.495782,5.96242 C 77.667733,113.93687 74.291366,103.71805 73.926924,95.699442 Z m 35.837226,10.330398 c 0.29788,-0.18769 0.42988,-0.96216 0.52917,-3.10481 l 0.13229,-2.85474 2.24896,-0.0663 c 3.87161,-0.114225 4.23333,-0.351422 4.23333,-2.775984 0,-2.36348 -0.28109,-2.581621 -3.32666,-2.581621 -1.34799,0 -2.63922,-0.07227 -2.86941,-0.1606 -0.34327,-0.131725 -0.41851,-0.639352 -0.41851,-2.823437 0,-3.387982 -0.1737,-3.630546 -2.59987,-3.630546 -2.52577,0 -2.69181,0.221112 -2.69181,3.584574 0,2.226006 -0.0746,2.737435 -0.41851,2.869409 -0.23019,0.08833 -1.50073,0.1606 -2.82344,0.1606 -3.082159,0 -3.372638,0.218392 -3.372638,2.53565 0,2.476463 0.34625,2.707272 4.233338,2.821955 l 2.24896,0.0663 0.13229,2.85474 c 0.0993,2.14265 0.23129,2.91712 0.52917,3.10481 0.21828,0.13753 1.17078,0.25006 2.11666,0.25006 0.94589,0 1.89839,-0.11253 2.11668,-0.25006 z"
         id="path1050"
         sodipodi:nodetypes="cscssssscssscssscccsccssssssssscccssc" />
      <path
         style="fill:#e72229;stroke-width:0.264583"
         d="m 92.545893,108.6896 -0.773397,-0.77339 V 97.159876 86.403546 l 0.773397,-0.773397 c 0.746156,-0.746156 0.861846,-0.773397 3.284524,-0.773397 h 2.511125 l 0.08891,-3.065011 0.08891,-3.06501 0.864071,-0.771448 0.864067,-0.771448 h 7.3894 7.38941 l 0.74236,0.637558 c 0.71843,0.617012 0.74662,0.73851 0.87465,3.770312 l 0.13229,3.132755 2.70585,0.132292 c 2.36401,0.115579 2.78182,0.208427 3.30729,0.734953 l 0.60144,0.602664 V 97.190134 108.1859 l -0.74235,0.63855 -0.74236,0.63855 h -14.2931 -14.293097 z m 17.185587,-2.60004 c 0.48946,-0.40826 0.56332,-0.79154 0.62462,-3.24114 l 0.0695,-2.77813 2.86649,-0.132289 c 3.42229,-0.157943 3.6158,-0.306623 3.6158,-2.778125 0,-2.471502 -0.19351,-2.620182 -3.6158,-2.778125 l -2.86649,-0.132291 -0.13229,-2.778125 c -0.0728,-1.527969 -0.22862,-2.926953 -0.34635,-3.108854 -0.14142,-0.218506 -0.92169,-0.330729 -2.29949,-0.330729 -1.37779,0 -2.15806,0.112223 -2.29948,0.330729 -0.11773,0.181901 -0.27359,1.580885 -0.34635,3.108854 l -0.13229,2.778125 -2.86649,0.132291 c -3.458418,0.15961 -3.615801,0.287081 -3.615801,2.928588 0,2.347886 0.159358,2.461763 3.677141,2.627662 l 2.80515,0.132289 0.0695,2.77813 c 0.0847,3.38638 0.31711,3.70416 2.7086,3.70416 1.06822,0 1.69614,-0.13951 2.08399,-0.46302 z m 3.94557,-23.218692 c 0.12355,-2.996138 0.30436,-2.908908 -6.02956,-2.908908 -6.26328,0 -6.08541,-0.08139 -6.08541,2.784598 0,0.966579 0.0816,1.83901 0.18132,1.938736 0.0997,0.09973 2.8084,0.149335 6.01927,0.110243 l 5.83795,-0.07108 z"
         id="path1048" />
      <path
         style="fill:#243a5b;stroke-width:0.264583"
         d="m 98.486009,84.468345 c -0.08197,-0.213624 -0.108004,-1.592801 -0.05784,-3.064838 0.09001,-2.641479 0.102487,-2.686507 0.955274,-3.448051 l 0.864067,-0.771621 h 7.42451 7.42451 l 0.7734,0.773398 c 0.76574,0.765734 0.7734,0.803748 0.7734,3.836458 v 3.063061 h -1.45521 -1.45521 v -1.933805 c 0,-3.069453 0.22292,-2.960987 -6.08542,-2.960987 -6.30833,0 -6.08541,-0.108466 -6.08541,2.960987 v 1.933805 h -1.46351 c -1.042645,0 -1.506375,-0.111696 -1.612559,-0.388407 z"
         id="path1046" />
    </g>
    <path
       style="fill:#ffffff;fill-opacity:1;stroke:#ffffff;stroke-width:0.0386037;stroke-linecap:round;stroke-linejoin:round;paint-order:stroke markers fill"
       d="m 82.226759,146.79542 c -0.09866,-0.0182 -0.157102,-0.0528 -0.187778,-0.11116 -0.02593,-0.0493 -0.03366,-0.15267 -0.04344,-0.58116 -0.01777,-0.778 0.01289,-0.74513 -0.714005,-0.76538 -0.608607,-0.0169 -0.684569,-0.0359 -0.737134,-0.18455 -0.0346,-0.0978 -0.03438,-0.62388 2.96e-4,-0.72419 0.02985,-0.0863 0.09595,-0.1423 0.20188,-0.17083 0.04302,-0.0115 0.308974,-0.0273 0.591012,-0.0349 0.533907,-0.0144 0.577801,-0.0217 0.621285,-0.10293 0.01485,-0.0277 0.02658,-0.23757 0.03446,-0.61613 0.01348,-0.64772 0.0143,-0.65123 0.166737,-0.70708 0.107024,-0.0392 0.463799,-0.0533 0.611868,-0.0242 0.163345,0.0322 0.219942,0.0648 0.242872,0.14021 0.01055,0.0347 0.02441,0.28634 0.03081,0.55924 0.0064,0.27289 0.01713,0.53626 0.02385,0.58528 0.02035,0.14841 0.02865,0.15061 0.6225,0.16589 0.554408,0.0142 0.666254,0.0309 0.741199,0.11044 0.07094,0.0753 0.09031,0.17525 0.09031,0.46624 0,0.2961 -0.0184,0.38681 -0.08983,0.443 -0.08598,0.0676 -0.194482,0.0828 -0.68203,0.0959 -0.52267,0.0139 -0.578046,0.0259 -0.644549,0.1384 -0.04469,0.0757 -0.0677,0.32881 -0.07002,0.77037 -0.0028,0.53405 -0.01485,0.54815 -0.472494,0.55324 -0.159241,0.002 -0.311243,-7.9e-4 -0.337783,-0.006 z"
       id="path1226" />
    <path
       style="fill:#c1cfdd;fill-opacity:1;stroke-width:0.00811093"
       d="m 83.984871,151.63893 v -0.41568 l 1.599054,-1.59907 1.599055,-1.59907 -0.04658,-0.10423 c -0.185731,-0.41564 -0.272141,-0.91073 -0.227004,-1.3006 0.118715,-1.0254 0.900306,-1.84521 1.917373,-2.01114 0.461091,-0.0752 0.923551,-0.003 1.354181,0.21114 0.0695,0.0346 0.16387,0.0867 0.20968,0.11593 0.58142,0.37035 0.97211,0.98804 1.05179,1.66294 0.0265,0.22434 0.0231,0.39479 -0.012,0.61221 -0.15575,0.96372 -0.90645,1.72589 -1.8693,1.89785 -0.28127,0.0502 -0.540525,0.0428 -0.826613,-0.0236 l -0.09804,-0.0228 -0.665115,0.66453 -0.665115,0.66452 h -0.415668 -0.415667 v 0.41366 0.41366 h -0.413658 -0.413657 v 0.41771 0.41771 h -0.831373 -0.831371 z m 5.930609,-4.99798 c 0.21014,-0.0445 0.39525,-0.20487 0.4677,-0.40511 0.0763,-0.21094 0.0374,-0.43079 -0.10747,-0.60639 -0.17859,-0.2165 -0.49648,-0.28104 -0.75512,-0.15331 -0.23188,0.11452 -0.37415,0.38028 -0.33676,0.62909 0.0532,0.35395 0.398,0.60643 0.73165,0.53572 z"
       id="path949" />
  </g>
</svg>
