<?xml version="1.0" encoding="UTF-8" standalone="no"?>
<!-- Created with Inkscape (http://www.inkscape.org/) -->

<svg
   width="166.17897mm"
   height="119.06249mm"
   viewBox="0 0 166.17897 119.06249"
   version="1.1"
   id="svg5"
   inkscape:version="1.1.1 (3bf5ae0d25, 2021-09-20)"
   sodipodi:docname="note-found-2.svg"
   xmlns:inkscape="http://www.inkscape.org/namespaces/inkscape"
   xmlns:sodipodi="http://sodipodi.sourceforge.net/DTD/sodipodi-0.dtd"
   xmlns="http://www.w3.org/2000/svg"
   xmlns:svg="http://www.w3.org/2000/svg">
  <sodipodi:namedview
     id="namedview7"
     pagecolor="#505050"
     bordercolor="#eeeeee"
     borderopacity="1"
     inkscape:pageshadow="0"
     inkscape:pageopacity="0"
     inkscape:pagecheckerboard="0"
     inkscape:document-units="mm"
     showgrid="false"
     inkscape:zoom="1.4142136"
     inkscape:cx="237.94143"
     inkscape:cy="130.4612"
     inkscape:window-width="3200"
     inkscape:window-height="1261"
     inkscape:window-x="2391"
     inkscape:window-y="-9"
     inkscape:window-maximized="1"
     inkscape:current-layer="layer1"
     fit-margin-top="0"
     fit-margin-left="0"
     fit-margin-right="0"
     fit-margin-bottom="0" />
  <defs
     id="defs2" />
  <g
     inkscape:label="Layer 1"
     inkscape:groupmode="layer"
     id="layer1"
     transform="translate(-57.229278,-97.011392)">
    <g
       id="g872"
       transform="translate(-66.007169,-27.690178)">
      <path
         id="path888"
         style="fill:#fdfdfd;stroke-width:0.264583"
         d="m 170.35292,124.70157 v 59.53124 59.53125 h 59.53125 59.53125 v -59.53125 -59.53124 h -59.53125 z m 71.33156,30.18316 c 1.99619,0.0172 4.12934,0.39054 5.40794,1.04283 3.3013,1.68419 5.28271,4.54924 5.48597,7.93233 0.11263,1.8746 -0.16352,7.20501 -0.72605,14.02292 -0.13808,1.67349 -0.37409,4.79127 -0.52451,6.92826 l -0.27339,3.88555 1.04336,1.93528 c 0.57382,1.06446 1.21737,2.60395 1.42988,3.42098 0.22839,0.87808 0.67766,1.77681 1.09916,2.19832 0.5357,0.53574 0.67892,0.89047 0.57515,1.42523 -0.087,0.44827 0.0534,1.02336 0.37931,1.5534 0.59296,0.9644 0.9081,3.05558 0.65992,4.37854 -0.0932,0.4968 -0.52609,1.26854 -0.96223,1.71462 -0.77282,0.79049 -2.84697,1.66399 -3.95065,1.66399 -0.53592,0 -0.53311,0.0246 0.11472,1.00355 0.36523,0.5519 0.79401,1.70669 0.95292,2.56625 0.34049,1.84187 0.18079,2.05039 -1.91616,2.50011 -2.02838,0.435 -3.53307,0.33656 -5.63326,-0.36845 -2.62509,-0.88122 -3.73405,-1.53756 -3.64835,-2.15956 0.0378,-0.27439 0.12477,-0.97545 0.19327,-1.55753 0.0685,-0.58208 0.1683,-1.29646 0.2222,-1.5875 0.36546,-1.97256 0.53768,-2.69687 0.72864,-3.06803 0.36175,-0.70309 -0.29175,-1.03301 -2.04742,-1.03301 h -1.65468 l 0.36019,0.72761 c 0.96762,1.95517 1.17218,2.60419 1.39681,4.43177 0.0716,0.58208 0.24419,1.19939 0.38344,1.372 0.16125,0.20022 0.15859,0.4896 -0.007,0.79944 -0.31738,0.59301 -3.78999,2.34449 -5.37177,2.70939 -1.65712,0.38194 -4.57772,0.19902 -5.45083,-0.34158 -0.50439,-0.31231 -0.3934,-2.78847 0.1819,-4.05556 0.60908,-1.34149 1.49488,-1.96182 3.05201,-2.13734 1.31279,-0.14796 1.95017,-0.68823 2.14664,-1.81953 0.0726,-0.41803 0.30524,-0.89211 0.51728,-1.05368 0.69625,-0.53049 0.41998,-1.12165 -0.77101,-1.64848 -2.15195,-0.95191 -4.46144,-3.49568 -5.2033,-5.73091 -0.19319,-0.5821 -0.41876,-1.86749 -0.50126,-2.85668 l -0.14986,-1.79886 -0.8754,0.64751 c -1.05678,0.78177 -2.38787,1.06946 -3.31556,0.71675 -0.45902,-0.17453 -0.95065,-0.16699 -1.49345,0.0222 -0.85677,0.29867 -0.85654,0.2967 -0.4346,3.23598 0.0183,0.12732 -0.29823,0.34725 -0.70331,0.48834 -1.0908,0.37992 -1.434,-0.076 -1.6459,-2.18592 -0.10168,-1.01258 -0.26165,-1.84147 -0.35605,-1.84226 -0.36989,-0.003 -2.17795,-1.86628 -2.03502,-2.09755 0.0835,-0.13517 0.0311,-0.32098 -0.11679,-0.41238 -0.1479,-0.0914 -0.26871,-0.55208 -0.26871,-1.02371 0,-0.47163 -0.14314,-1.00045 -0.31781,-1.17512 -0.17467,-0.17468 -0.35048,-1.13511 -0.39068,-2.13423 -0.0774,-1.92308 0.21501,-2.51174 1.35082,-2.71973 0.2807,-0.0514 0.49711,-0.21259 0.48111,-0.35812 -0.016,-0.14552 -0.11084,-1.24685 -0.21084,-2.4474 -0.14789,-1.77538 -0.26225,-2.18093 -0.6134,-2.17092 -0.23745,0.007 -3.1104,0.34684 -6.38462,0.75602 -3.27422,0.40919 -6.01337,0.65218 -6.08697,0.54002 -0.18755,-0.28577 -2.43907,-19.06401 -2.30218,-19.2009 0.0615,-0.0615 6.46882,-0.87835 14.2384,-1.81539 7.76958,-0.93705 14.57328,-1.76928 15.11898,-1.84898 0.86574,-0.12638 0.99219,-0.0769 0.99219,0.38757 0,0.51606 0.39455,0.74159 0.57309,0.32763 0.19645,-0.45548 2.79398,-1.94854 4.02663,-2.31459 0.88492,-0.26279 2.03361,-0.38082 3.23132,-0.37052 z m -9.05319,2.60449 c -1.30334,0.039 -4.61725,0.46063 -13.06587,1.48725 -6.47568,0.78688 -12.63716,1.51046 -13.69219,1.60766 -1.11658,0.10288 -1.919,0.29933 -1.92029,0.46973 -0.001,0.161 0.49207,4.3506 1.09605,9.31055 1.06418,8.73912 1.11527,9.0155 1.65572,8.9302 0.52631,-0.083 3.09706,-0.39446 17.35863,-2.10271 3.27421,-0.39218 6.02964,-0.83015 6.12314,-0.97307 0.0935,-0.14291 0.18121,-0.9876 0.19481,-1.87741 0.0136,-0.88981 0.2048,-3.40391 0.42478,-5.58673 0.21998,-2.18281 0.40024,-4.49627 0.4005,-5.14078 5.3e-4,-1.2599 0.49239,-2.92902 0.86299,-2.92902 0.1248,0 0.15347,-0.11906 0.0636,-0.26458 -0.09,-0.14552 -0.0613,-0.26458 0.0636,-0.26458 0.12488,0 0.37827,-0.41859 0.56327,-0.93018 0.18499,-0.51158 0.44771,-0.86163 0.58343,-0.77773 0.1357,0.0839 0.20318,-0.12261 0.15038,-0.45889 -0.0516,-0.32886 0.15123,-0.53002 -0.86248,-0.49971 z m -5.51129,2.22157 c 0.17808,-0.006 0.31575,0.007 0.37,0.0403 0.10849,0.067 0.34871,1.56929 0.53382,3.33881 0.28926,2.76508 0.40662,3.23582 0.83405,3.3476 0.57199,0.14957 0.70855,1.54098 0.16899,1.72083 -0.20341,0.0678 -0.29582,0.47835 -0.24392,1.08055 0.0821,0.95295 0.0657,0.971 -0.86299,0.971 -0.88002,0 -0.9462,-0.0569 -0.9462,-0.81287 v -0.81287 l -1.49706,0.0693 c -2.17252,0.10064 -2.22785,-0.2207 -0.8537,-4.93717 1.06165,-3.64388 1.12625,-3.77884 1.88464,-3.93051 0.21596,-0.0431 0.43428,-0.0686 0.61237,-0.0749 z m -8.35608,0.98961 c 0.57645,-0.003 1.15131,0.12694 1.52858,0.39119 0.71333,0.49964 0.99361,1.54893 1.39579,5.2281 0.35139,3.21448 0.16008,4.13827 -0.96274,4.64985 -0.66666,0.30376 -2.07617,0.36728 -2.68717,0.12144 -0.67761,-0.27263 -1.11623,-1.70088 -1.51412,-4.9289 -0.44107,-3.57834 -0.33716,-4.32539 0.70228,-5.05344 0.3833,-0.26846 0.96093,-0.40505 1.53738,-0.40824 z m 15.04301,0.002 c -0.0451,0.0119 -0.12921,0.0734 -0.25839,0.17829 -0.7154,0.58069 -1.01145,2.2676 -1.41025,8.03878 -0.58566,8.47528 -0.62543,8.98157 -0.82269,10.48515 -0.12719,0.96951 -0.091,1.38906 0.11938,1.38906 0.16579,0 0.31701,-0.20836 0.33641,-0.46302 0.0545,-0.71729 0.14615,-2.07202 0.6227,-9.19427 0.40653,-6.07595 0.74984,-8.65847 1.33584,-10.05416 0.11851,-0.28227 0.15221,-0.39974 0.077,-0.37983 z m -20.86488,0.81081 c 0.37062,0.0106 0.53795,0.10323 0.53795,0.28783 0,0.46359 0.4883,4.5951 0.67335,5.69733 0.0856,0.5099 0.30094,0.8599 0.52916,0.8599 0.25127,0 0.38499,0.27557 0.38499,0.79375 0,0.43656 -0.11906,0.79375 -0.26458,0.79375 -0.14552,0 -0.26458,0.40327 -0.26458,0.89607 0,0.79367 -0.0909,0.90947 -0.7953,1.01285 -0.96954,0.14231 -1.05679,0.0653 -1.05679,-0.93224 v -0.78755 l -1.5875,0.16588 -1.03105,-0.34146 -0.55645,-0.48174 c -0.41136,-0.35613 0.45292,-2.5365 1.00666,-4.42764 l 1.00717,-3.43855 0.9772,-0.0822 c 0.1701,-0.0143 0.31623,-0.0196 0.43977,-0.016 z m 5.65237,0.76739 c -0.2019,0.0168 -0.38954,0.1039 -0.49299,0.2713 -0.19784,0.3201 0.3747,5.639 0.70331,6.53397 0.25179,0.68578 0.96655,0.79184 1.202,0.17829 0.15123,-0.39413 -0.32972,-5.534 -0.61082,-6.52829 -0.0894,-0.31623 -0.465,-0.4833 -0.8015,-0.45527 z m 7.6848,1.18288 -0.29972,1.05833 c -0.16469,0.58208 -0.38152,1.39912 -0.48214,1.81539 -0.17021,0.70404 -0.13924,0.74309 0.44803,0.56224 0.34723,-0.10694 0.64969,-0.20959 0.67179,-0.22789 0.0221,-0.0183 -0.0453,-0.74745 -0.14934,-1.62057 z m -14.26321,1.85208 -0.34313,1.19063 c -0.18872,0.65479 -0.40316,1.39898 -0.47646,1.65364 -0.10226,0.35534 0.0244,0.46302 0.5457,0.46302 0.74767,0 0.80821,-0.29367 0.46147,-2.24896 z m 16.65273,6.48229 c 1.07549,0 1.15989,0.0531 1.31465,0.82682 0.31694,1.58471 0.21423,2.08321 -0.42995,2.08722 -0.32742,0.002 -0.85219,0.0728 -1.16634,0.15709 -0.41264,0.1107 -0.60631,0.0179 -0.69711,-0.33434 -0.11282,-0.43747 -0.12908,-0.4402 -0.15658,-0.0248 -0.0169,0.25466 -0.14955,0.46302 -0.29507,0.46302 -0.14553,0 -0.27213,-0.20836 -0.28112,-0.46302 -0.0129,-0.35475 -0.073,-0.32381 -0.25632,0.1323 -0.24754,0.61586 -0.89479,0.79564 -1.18339,0.32866 -0.10215,-0.16528 -0.31649,-0.11502 -0.56379,0.13229 -0.56114,0.56113 -0.8564,0.49858 -1.19941,-0.25425 -0.33168,-0.72796 -0.74931,-0.65022 -0.74931,0.13953 0,0.56783 -0.48662,0.70521 -0.64802,0.18293 -0.0562,-0.1819 -0.16009,-0.83675 -0.231,-1.45521 -0.10515,-0.91737 -0.0482,-1.12745 0.30903,-1.14205 0.24081,-0.01 0.84649,-0.0707 1.34617,-0.13539 0.55865,-0.0723 0.99005,0.0107 1.12035,0.21601 0.15287,0.24078 0.213,0.20478 0.216,-0.12919 0.006,-0.74238 0.48739,-0.53319 0.60824,0.26458 l 0.11058,0.72761 0.0393,-0.72761 c 0.0442,-0.81107 0.46376,-0.98154 0.65112,-0.26458 0.1152,0.44098 0.12273,0.44098 0.15193,0 0.0303,-0.45734 0.67638,-0.6491 0.89142,-0.26458 0.061,0.10913 0.0743,0.0496 0.03,-0.1323 -0.0551,-0.2262 0.28266,-0.33073 1.06867,-0.33073 z m 0.54364,0.84284 c -0.0316,0.0315 -0.0534,0.24857 -0.0553,0.61237 h 5.3e-4 c -0.003,0.5821 0.0485,0.85137 0.11472,0.59841 0.0659,-0.25297 0.0685,-0.72922 0.005,-1.05833 -0.0237,-0.12342 -0.0462,-0.17131 -0.0651,-0.15245 z m -5.05241,0.30695 c -0.0401,-0.006 -0.068,0.0906 -0.076,0.28319 -0.0115,0.27897 0.0511,0.43517 0.13901,0.34727 0.0879,-0.0879 0.0976,-0.31595 0.0212,-0.50695 -0.0317,-0.0791 -0.0602,-0.11986 -0.0842,-0.12351 z m 4.26021,0.031 c -0.0479,-0.0178 -0.0816,0.13384 -0.0816,0.40669 0,0.36383 0.0599,0.51263 0.13332,0.33073 0.0734,-0.1819 0.0734,-0.47955 0,-0.66146 -0.0183,-0.0455 -0.0357,-0.07 -0.0517,-0.076 z m -5.28289,0.14211 c -0.48052,0 -0.52683,0.43268 -0.0661,0.61857 0.1819,0.0734 0.36047,0.14301 0.39687,0.15451 0.0363,0.0115 0.0662,-0.15792 0.0662,-0.3762 0,-0.21829 -0.1786,-0.39688 -0.39688,-0.39688 z m -12.53463,3.96876 c -151.32272,-84.732488 -75.66136,-42.36625 0,0 z m 15.40939,-3.34812 c -0.0401,-0.006 -0.068,0.0905 -0.076,0.28319 -0.0115,0.27887 0.0511,0.43517 0.13901,0.34727 0.0879,-0.0879 0.0976,-0.31595 0.0212,-0.50695 -0.0317,-0.0791 -0.0602,-0.11986 -0.0842,-0.12351 z m -1.5875,0.26459 c -0.0401,-0.006 -0.068,0.0905 -0.076,0.28318 -0.0115,0.27886 0.0511,0.43517 0.13901,0.34727 0.0879,-0.0879 0.0976,-0.31594 0.0212,-0.50695 -0.0317,-0.0791 -0.0602,-0.11986 -0.0842,-0.1235 z m 5.72214,3.09232 c -0.97882,-0.007 -8.02921,0.75161 -8.79533,0.95963 -0.31185,0.0847 -0.46302,0.388 -0.46302,0.92966 0,0.6637 0.0809,0.7704 0.46302,0.60978 0.95138,-0.39986 1.59807,-0.43025 1.81436,-0.0853 0.12262,0.1956 0.29889,1.16814 0.39119,2.16111 0.11887,1.27905 0.33527,2.01185 0.74259,2.51354 0.9794,1.20632 1.68263,2.95361 1.51877,3.7729 -0.0826,0.4132 -0.0348,0.82199 0.10593,0.90899 0.14076,0.087 0.2558,0.4393 0.2558,0.78238 0,0.34309 0.14883,0.67935 0.33073,0.74775 1.0105,0.38 3.00638,-2.16085 3.22823,-4.10982 0.26406,-2.31964 0.64463,-9.05297 0.51883,-9.17877 -0.008,-0.008 -0.0459,-0.0115 -0.1111,-0.0119 z m -7.76077,2.68717 c -0.1492,-0.002 -0.33391,0.0583 -0.56431,0.1633 -0.70292,0.32027 -0.81365,0.84769 -0.50333,2.39933 0.12809,0.64044 0.30361,0.82683 0.77825,0.82683 0.33702,0 0.68628,0.11906 0.77618,0.26458 0.27753,0.44905 0.29322,0.32056 0.18345,-1.52135 -0.0934,-1.56686 -0.22265,-2.12742 -0.67024,-2.13269 z m 19.8546,2.22984 c -0.23737,0.0133 -0.4128,0.17468 -0.70383,0.54467 -0.72427,0.92076 -0.68044,1.77367 0.13332,2.58743 0.37042,0.37042 0.97151,0.67335 1.33532,0.67335 0.83161,0 1.96009,-1.10184 1.96009,-1.91358 0,-0.797 -0.7106,-1.80612 -1.15239,-1.63659 -0.1892,0.0726 -0.65729,0.0133 -1.04024,-0.13229 -0.22516,-0.0856 -0.38985,-0.13098 -0.53227,-0.12299 z m -6.60476,0.1881 c -0.0351,0.003 -0.0699,0.0114 -0.10491,0.0248 -0.21902,0.084 -0.80845,0.15296 -1.30948,0.15296 -0.74487,0 -0.96005,0.1294 -1.1808,0.71004 -0.33836,0.88992 0.0816,2.0206 0.8971,2.41484 0.79733,0.38552 1.0586,0.37382 1.65054,-0.0739 0.50545,-0.38228 0.50485,-0.38888 -0.0289,-0.39687 -1.08194,-0.0168 -1.57236,-1.20286 -0.77204,-1.86707 0.33257,-0.27596 0.46291,-0.25887 0.7276,0.0951 0.20828,0.2785 0.44932,0.35114 0.68058,0.20516 0.47257,-0.29829 -0.0335,-1.31594 -0.55965,-1.26504 z m 6.71483,0.51521 c 0.19247,-0.0196 0.4143,0.0701 0.63149,0.28733 0.22623,0.22628 0.58639,0.34368 0.80047,0.26148 0.48622,-0.18659 0.54387,0.97024 0.0718,1.44229 -0.17463,0.17462 -0.56773,0.31729 -0.87333,0.31729 -0.76481,0 -1.19062,-0.49478 -1.19062,-1.38389 0,-0.55556 0.23938,-0.89183 0.56017,-0.9245 z m -11.12077,0.4098 c -0.042,-0.001 -0.09,0.0283 -0.14366,0.0863 -0.21068,0.22761 -0.73046,9.66072 -0.6072,11.02 0.15681,1.72932 0.89075,3.45593 2.0836,4.90306 1.00565,1.22003 1.34634,1.09068 0.39894,-0.15142 -0.97175,-1.27403 -1.69536,-3.03562 -1.87534,-4.56664 -0.0855,-0.72761 -5.3e-4,-3.50507 0.18862,-6.17224 0.25594,-3.6097 0.24875,-5.11112 -0.045,-5.11906 z m -10.45776,0.58032 c -0.92342,-0.0178 -1.88727,0.0755 -2.35903,0.29043 -0.59396,0.27065 -0.64461,0.43289 -0.60771,1.94406 0.0248,1.01775 0.19105,1.8301 0.43408,2.12287 0.21646,0.26083 0.35606,0.76132 0.31006,1.11259 -0.046,0.35129 0.0548,0.80608 0.22428,1.01028 0.16948,0.20421 0.23567,0.48802 0.14727,0.63097 -0.0883,0.14295 0.0503,0.38274 0.30799,0.53278 1.0704,0.62316 4.08902,0.0304 4.25504,-0.83561 0.0743,-0.38731 -0.1195,-0.46612 -1.187,-0.48162 -0.95657,-0.0139 -1.14388,-0.0755 -0.74725,-0.24598 0.29104,-0.12507 0.90921,-0.23578 1.37356,-0.24598 1.86038,-0.041 1.22627,-1.32414 -0.67851,-1.37304 l -1.22421,-0.0315 1.30431,-0.30955 c 2.26313,-0.53712 1.85912,-1.60112 -0.73277,-1.93011 l -1.62988,-0.20671 1.42834,-0.13436 c 1.69076,-0.15897 2.36876,-0.82585 1.49758,-1.47278 -0.30971,-0.22996 -1.19273,-0.35895 -2.11615,-0.37672 z m 3.22978,0.98444 c -0.0627,0.004 -0.14344,0.10048 -0.22583,0.30644 -0.18828,0.47071 -0.15125,0.74699 0.14315,1.07229 0.21814,0.24105 0.40498,0.84873 0.41548,1.3503 0.0104,0.50157 0.043,1.23335 0.0723,1.62626 0.0627,0.84182 0.2242,0.69285 0.66508,-0.6134 0.25887,-0.76709 0.25367,-1.16159 -0.0263,-1.98437 -0.19223,-0.56483 -0.49152,-0.99707 -0.6656,-0.96067 -0.17408,0.0364 -0.30245,-0.0232 -0.28525,-0.13229 0.0667,-0.4226 0.0115,-0.67152 -0.093,-0.66456 z m 1.55339,4.79919 c -0.12339,-0.01 -0.39268,0.2473 -0.95188,0.84698 -0.57611,0.61783 -0.9812,1.23052 -0.9002,1.36167 0.0811,0.13114 -0.0658,0.4741 -0.32659,0.76223 -0.45772,0.50574 -0.45622,0.51755 0.0403,0.34003 1.14471,-0.40928 2.23398,-1.88296 2.23398,-3.02256 0,-0.1808 -0.0216,-0.28265 -0.0956,-0.28835 z m -2.22105,2.14922 c -0.14552,0 -0.4126,0.1786 -0.59376,0.39688 -0.18374,0.22139 -0.21219,0.39687 -0.0646,0.39687 0.14553,0 0.41262,-0.17859 0.59377,-0.39687 0.18374,-0.22139 0.21218,-0.39688 0.0646,-0.39688 z m 27.39781,2.75798 c -0.12226,-0.0149 -0.21032,0.19378 -0.21032,0.52399 0,2.1273 -2.3029,5.55477 -4.6607,6.93653 -1.31715,0.7719 -1.43683,1.18096 -0.52141,1.78077 0.35116,0.23009 0.72231,0.80196 0.82527,1.27072 0.10296,0.46877 0.44099,1.06398 0.75086,1.32292 0.81303,0.67938 1.00324,0.62074 2.37194,-0.72864 0.81775,-0.8062 1.23404,-1.44031 1.23404,-1.87999 0,-0.53305 -0.0911,-0.6237 -0.46302,-0.46043 -1.11884,0.49117 -2.4474,-0.0195 -2.4474,-0.94051 0,-0.53238 0.44549,-0.95903 1.14412,-1.09606 0.5225,-0.10248 1.47762,-2.46996 1.49294,-3.70003 0.005,-0.38237 0.18737,-0.84359 0.40566,-1.02475 0.44664,-0.37068 0.53752,-1.73392 0.13229,-1.98437 -0.0188,-0.0116 -0.0368,-0.018 -0.0543,-0.0202 z m 1.82832,1.51256 c -0.85306,0.008 -1.63988,0.47961 -1.85311,1.29501 -0.14028,0.53647 -0.1233,0.53982 0.52864,0.11266 0.73056,-0.4787 0.67722,-0.30705 -0.33383,1.06867 -0.32083,0.43656 -0.66931,1.0914 -0.77412,1.45521 -0.31686,1.09993 -0.91164,1.85208 -1.46452,1.85208 -0.71692,0 -0.66392,0.75757 0.0724,1.0356 0.78292,0.29563 1.47264,-0.0871 1.68568,-0.93586 0.26054,-1.03812 0.62029,-0.22741 0.62529,1.40818 0.004,1.26324 -0.0715,1.43341 -0.92191,2.08204 -1.03627,0.79039 -1.14218,1.07722 -0.46302,1.2547 0.76848,0.20083 0.85989,0.19298 0.85989,-0.0739 0,-0.14096 0.15172,-0.19823 0.33692,-0.12713 0.3492,0.13401 1.13594,-0.99731 1.54411,-2.22053 0.19241,-0.57669 0.21556,-0.50121 0.12814,0.42116 -0.0708,0.74736 -0.0127,1.06649 0.17365,0.95136 0.166,-0.10264 0.20232,-0.0471 0.0889,0.13643 -0.10528,0.1707 -0.29009,0.24897 -0.41032,0.17467 -0.1202,-0.0743 -0.28659,0.043 -0.36999,0.26045 -0.0834,0.21744 -0.0366,0.39532 0.10438,0.39532 0.40248,0 1.32085,-1.0206 1.74614,-1.94045 0.32708,-0.70742 0.37008,-0.7347 0.27649,-0.17622 -0.061,0.36381 -0.19878,0.87127 -0.30644,1.12758 -0.15319,0.36463 -0.0985,0.42873 0.25114,0.29456 0.24578,-0.0943 0.75132,-0.8145 1.12345,-1.60042 0.86918,-1.83574 0.72501,-3.56372 -0.4558,-5.46323 -0.52855,-0.85028 -0.66823,-1.2469 -0.40306,-1.14515 0.67156,0.2577 0.46752,-0.53471 -0.29147,-1.13172 -0.45011,-0.35406 -0.98576,-0.51594 -1.49757,-0.51108 z m -16.26465,8.47645 c -0.0336,-0.005 -0.0765,7.9e-4 -0.12764,0.0176 -0.182,0.0598 -0.36769,0.54726 -0.41289,1.08314 -0.0685,0.8111 0.0201,1.01539 0.52916,1.21956 0.86431,0.34666 1.19926,0.33028 2.02882,-0.0987 0.64978,-0.33602 0.71493,-0.48823 0.59376,-1.38907 -0.094,-0.69863 -0.16572,-0.82783 -0.23202,-0.41703 -0.0577,0.35784 -0.34266,0.65695 -0.71469,0.75035 -0.80724,0.2026 -1.81521,-0.33361 -1.61385,-0.85835 0.0708,-0.18464 0.0503,-0.29305 -0.0507,-0.30747 z m 6.39496,0.37155 c -0.0622,-0.0208 -0.081,0.2227 -0.0899,0.79427 -0.009,0.59421 0.0627,1.15977 0.15968,1.25677 0.58991,0.58991 3.40083,-0.14254 3.14141,-0.81855 -0.0784,-0.20427 -0.14262,-0.55861 -0.14262,-0.78755 0,-0.37075 -0.0528,-0.36829 -0.48369,0.0217 -0.73411,0.66436 -2.12452,0.57367 -2.41846,-0.15761 -0.076,-0.18897 -0.12907,-0.29653 -0.1664,-0.30902 z m 5.84149,2.32648 c -1.24434,0.02 -2.35252,0.86741 -3.06647,2.41432 -0.75652,1.63915 -0.67073,1.88957 0.75655,2.20452 1.23901,0.27338 3.66094,0.21468 4.99814,-0.12093 0.63347,-0.15899 0.67493,-0.25858 0.55502,-1.3224 -0.16788,-1.48933 -0.80089,-2.42943 -1.96321,-2.91507 -0.43545,-0.18194 -0.86524,-0.26711 -1.28003,-0.26044 z m -15.09519,0.25528 c -1.19839,-0.0357 -2.38429,0.64013 -2.90731,1.89187 -0.46881,1.12208 -0.49369,2.42254 -0.0501,2.61793 0.60449,0.26628 5.08055,7.9e-4 5.88698,-0.34933 0.43661,-0.18947 0.65738,-0.39597 0.49093,-0.45837 -0.1665,-0.0624 -0.24637,-0.32778 -0.17777,-0.59015 0.0686,-0.26237 -0.0574,-0.65946 -0.28009,-0.88212 -0.22268,-0.22265 -0.35214,-0.45711 -0.28783,-0.52141 0.0643,-0.0643 -0.2256,-0.44521 -0.64441,-0.84646 -0.58765,-0.563 -1.31133,-0.84056 -2.03037,-0.86196 z m 8.14834,3.1843 c -0.0384,-0.004 -0.0594,0.003 -0.0594,0.0212 0,0.23121 2.18729,1.27176 3.70416,1.76217 0.80037,0.25876 2.11005,0.46173 2.91042,0.45114 l 1.45521,-0.0196 -1.67277,-0.21704 c -1.68848,-0.21913 -4.24835,-0.99963 -5.641,-1.71979 -0.31191,-0.16134 -0.5814,-0.2664 -0.6966,-0.27802 z m -1.94251,0.31471 c -0.14248,0.003 -0.75821,0.23154 -1.49035,0.55759 -0.83675,0.37263 -2.53339,0.89979 -3.77031,1.17202 l -2.24896,0.49506 1.788,-0.13591 c 1.25613,-0.0957 2.37751,-0.40501 3.77031,-1.03973 1.09033,-0.49688 1.98231,-0.96363 1.98231,-1.03663 0,-0.009 -0.0107,-0.0128 -0.031,-0.0124 z m 12.23438,1.02991 c -0.0416,0.006 -0.092,0.0203 -0.15089,0.0429 -0.22585,0.0867 -0.41082,0.20428 -0.41082,0.26148 0,0.21429 0.50401,0.0938 0.6594,-0.15761 0.0695,-0.11248 0.0272,-0.16538 -0.0977,-0.14676 z m -1.62004,0.44235 c -0.11988,0 -0.23979,0.0186 -0.33073,0.0553 -0.18193,0.0734 -0.0331,0.13333 0.33073,0.13333 0.36383,0 0.51263,-0.0599 0.33073,-0.13333 -0.091,-0.0367 -0.21085,-0.0553 -0.33073,-0.0553 z m -19.07223,0.26303 c -0.0919,-0.004 -0.19647,0.013 -0.29197,0.0512 -0.21106,0.0845 -0.14855,0.1475 0.15968,0.1602 0.27886,0.0115 0.43517,-0.0511 0.34727,-0.13901 -0.044,-0.0439 -0.12306,-0.0686 -0.21498,-0.0723 z"
         sodipodi:nodetypes="cccccccccsssscccssssssssssssscssccscscssssssscccssssscsssssssscsssscsssssssscssssssssssssssssssssssccsssssssssssssssscsssssssssssscccscccssssssssccssscccsssccsscsssscsssssssscsccccssssssscccsssssssssssssssssssccssssssssssssssssssssssssssscssscscsssssssssssssscssssssscsssscsssssscssssssssssscccscccsssssccssscsssssssssssssssssssssssssssssssssssssscssssssccsssssssssssssscsssscsssssssssssssssssssssscsssssssssccsssssscccsssssssssssssssssss" />
      <path
         id="path886"
         style="fill:#f5e7a6;stroke-width:0.264583"
         d="m 241.68448,154.88473 c -2.50838,-0.0108 -3.10121,0.0738 -4.29121,0.61185 -0.75941,0.34337 -1.49947,0.76791 -1.64486,0.94309 -0.14539,0.17519 0.4322,-0.0271 1.28364,-0.44906 2.67934,-1.32801 7.16958,-1.27066 10.05933,0.12815 1.43221,0.69328 3.3384,2.38771 3.89331,3.46077 0.21783,0.42125 0.45943,0.70279 0.53692,0.62529 0.33642,-0.33642 -1.50823,-2.48091 -3.02773,-3.51968 -2.17194,-1.4848 -3.30809,-1.78531 -6.8094,-1.80041 z m -1.88981,0.93689 c -0.23854,0.001 -0.87339,0.17656 -1.85725,0.54467 -0.9087,0.33999 -2.03698,1.05348 -2.8112,1.77767 -2.26434,2.11802 -2.7045,3.34408 -3.09128,8.60568 -0.16164,2.19882 -0.40822,5.46274 -0.54777,7.2533 -0.13955,1.79056 -0.25373,3.62593 -0.25373,4.07882 0,1.55953 0.26256,0.55692 0.40204,-1.53479 0.93518,-14.02377 1.06543,-15.08137 1.93942,-15.79076 0.34445,-0.27959 0.37101,-0.2501 0.18138,0.20153 -0.57562,1.371 -0.92529,3.85801 -1.20819,8.59896 -0.16932,2.83765 -0.39357,5.90179 -0.49868,6.80889 -0.1051,0.9071 -0.11556,1.77141 -0.0233,1.92081 0.16314,0.26398 0.51805,-3.52376 1.06609,-11.37553 0.32518,-4.65897 0.87811,-6.3732 2.64531,-8.20002 0.66239,-0.68474 1.96235,-1.60846 2.91042,-2.06809 1.1047,-0.53557 1.45339,-0.82255 1.1467,-0.82114 z m -4.64313,1.03508 c -0.073,0 -0.40752,0.23813 -0.7431,0.52917 -0.33557,0.29104 -0.49147,0.52917 -0.34624,0.52917 0.14524,0 0.47972,-0.23813 0.74311,-0.52917 0.26337,-0.29104 0.41933,-0.52917 0.34623,-0.52917 z m -1.83193,1.44229 c -0.12861,-0.0209 -0.35987,0.32293 -0.5333,0.80254 -0.185,0.51159 -0.43839,0.93017 -0.56327,0.93017 -0.1249,0 -0.15346,0.11907 -0.0636,0.26459 0.09,0.14551 0.0613,0.26458 -0.0636,0.26458 -0.43772,0 -0.86225,1.77372 -0.82785,3.4587 l 0.0346,1.70067 0.21446,-1.85001 c 0.14842,-1.28221 0.49549,-2.39845 1.1312,-3.63751 0.50446,-0.98321 0.81735,-1.84913 0.69556,-1.92443 -0.008,-0.005 -0.0157,-0.008 -0.0243,-0.009 z m 18.44539,2.38797 c -0.05,0.0107 0.0292,0.28041 0.2403,0.89969 0.23757,0.6971 0.41648,2.32882 0.44958,4.10104 l 0.0548,2.94297 0.093,-2.51354 c 0.10848,-2.93841 -0.0742,-4.49567 -0.60822,-5.18987 -0.12314,-0.16006 -0.19944,-0.24671 -0.22945,-0.24029 z m -20.56412,5.03328 -0.35398,3.04271 c -0.19463,1.67349 -0.36564,3.67471 -0.38034,4.44728 -0.0199,1.0416 -0.11236,1.35647 -0.3576,1.21801 -0.26459,-0.14938 -0.26459,-0.11555 0,0.1695 0.1819,0.19597 0.32859,0.60085 0.32659,0.89917 -0.003,0.44713 -0.049,0.47238 -0.26045,0.14521 -0.29017,-0.449 -0.34462,-0.2522 -0.10387,0.37517 0.51214,1.33462 0.78793,-0.51011 1.00511,-6.72517 z m 3.98942,2.24896 c -0.68238,0 -0.76234,0.10032 -0.894,1.12448 -0.23372,1.81804 -0.68161,8.43459 -0.68161,10.06915 0,1.28782 0.071,1.50637 0.48834,1.50637 0.89966,0 1.32241,-0.83445 1.47639,-2.91248 0.0808,-1.09032 0.26282,-3.56066 0.40463,-5.49011 0.14185,-1.92945 0.18975,-3.68562 0.10645,-3.9026 -0.0849,-0.22111 -0.48029,-0.39481 -0.9002,-0.39481 z m 17.09096,1.77612 c -0.032,0.007 -0.0541,0.46623 -0.0548,1.26659 v 0 c 0,1.16418 0.045,1.67356 0.10179,1.13171 0.0571,-0.54185 0.058,-1.49435 0.003,-2.11666 -0.0175,-0.19447 -0.0341,-0.28478 -0.0486,-0.28164 z m -0.27337,3.94136 c -0.0344,0.0204 -0.0579,0.34686 -0.0579,0.89711 0,0.80039 0.05,1.12779 0.1106,0.7276 0.0606,-0.40018 0.0606,-1.05503 0,-1.45521 -0.0191,-0.12506 -0.0371,-0.17878 -0.0527,-0.1695 z m -21.71083,3.01377 c -0.33647,0 -0.34802,0.0675 -0.0661,0.38706 0.43366,0.49177 0.47336,0.49233 0.47336,0.01 0,-0.21828 -0.18319,-0.39687 -0.40721,-0.39687 z m 21.44159,1.11776 c -0.0358,0.0167 -0.0605,0.28412 -0.0605,0.73433 0,0.65481 0.0516,0.92273 0.11473,0.59531 0.0631,-0.32742 0.0631,-0.86321 0,-1.19063 -0.0198,-0.10232 -0.038,-0.1466 -0.0543,-0.13901 z m -21.42815,0.69402 c -0.0434,-0.025 -0.0739,0.18748 -0.0739,0.56947 0,0.50932 0.0544,0.71768 0.12092,0.46302 0.0665,-0.25466 0.0665,-0.67138 0,-0.92604 -0.0166,-0.0637 -0.0326,-0.0981 -0.047,-0.10645 z m 1.57561,1.22111 c -0.0478,-0.0178 -0.0816,0.13384 -0.0816,0.4067 0,0.36382 0.0599,0.51262 0.13333,0.33073 0.0734,-0.18191 0.0734,-0.47956 0,-0.66146 -0.0183,-0.0455 -0.0357,-0.07 -0.0517,-0.076 z m 1.16479,19.20633 c -0.0104,0.007 0.0111,0.0451 0.0682,0.11782 0.2284,0.29104 0.49211,0.74535 0.58601,1.00924 0.0938,0.26392 0.29012,0.40531 0.43667,0.31471 0.14655,-0.0906 0.26665,-0.0325 0.26665,0.12868 0,0.16122 0.50602,0.52284 1.12448,0.80357 0.61846,0.28073 1.30307,0.51056 1.52135,0.51056 0.21828,0 -0.13891,-0.24184 -0.79375,-0.53743 -0.65485,-0.29559 -1.7228,-1.03725 -2.3735,-1.64797 -0.48802,-0.45804 -0.8048,-0.71977 -0.83612,-0.69918 z m 6.3624,3.98684 c -0.0919,-0.004 -0.19648,0.013 -0.29197,0.0512 -0.21107,0.0845 -0.14855,0.14749 0.15968,0.16019 0.27886,0.0115 0.43516,-0.0511 0.34726,-0.13901 -0.0439,-0.0439 -0.12306,-0.0685 -0.21497,-0.0723 z m 3.5636,1.90583 c -0.0103,0.003 -0.0203,0.008 -0.0289,0.0171 -0.0693,0.0694 -0.0473,0.25305 0.0486,0.40825 0.26088,0.42214 0.41351,0.34014 0.23461,-0.12609 -0.0754,-0.19651 -0.18223,-0.31832 -0.25425,-0.29921 z m -8.59069,8.41292 c -0.0919,-0.004 -0.19647,0.013 -0.29197,0.0512 -0.21106,0.0845 -0.14855,0.14749 0.15968,0.16019 0.27886,0.0115 0.43517,-0.0511 0.34727,-0.13901 -0.044,-0.0439 -0.12306,-0.0685 -0.21498,-0.0723 z"
         sodipodi:nodetypes="sssssssssssssssssssssssssssssssssssscccsssscscccsscsssscssccscsssssscssccccssscssssssssscsssssssssssssssssccsscsssssscsssssssssccsccc" />
      <path
         style="fill:#f7d545;stroke-width:0.264583"
         d="m 249.2251,179.34636 c -0.29521,-0.19078 -0.14271,-0.25752 0.59531,-0.26053 0.54571,-0.002 0.99219,0.11501 0.99219,0.26053 0,0.337 -1.06603,0.337 -1.5875,0 z m -6.08542,-0.26911 c -5.46046,-0.40777 -7.28535,-0.58144 -7.49982,-0.71374 -0.12309,-0.0759 -0.15254,-0.62999 -0.0654,-1.23124 0.29568,-2.04132 0.66843,-8.37203 0.51629,-8.76849 -0.0848,-0.2211 -0.48071,-0.3945 -0.90061,-0.3945 -0.68238,0 -0.76213,0.10032 -0.89379,1.12448 -0.14442,1.12336 -0.68162,8.19611 -0.68162,8.9741 0,0.29612 -0.18531,0.37595 -0.66145,0.28492 -0.77275,-0.14772 -0.79025,-0.32982 -0.40565,-4.22246 0.14069,-1.42404 0.37926,-4.49417 0.53014,-6.8225 0.21125,-3.25993 0.41099,-4.59276 0.86867,-5.79649 0.75289,-1.98015 2.46373,-3.77581 4.56309,-4.78928 0.87312,-0.42151 1.65763,-0.86707 1.74335,-0.99014 0.23553,-0.33816 4.01996,0.60338 4.47435,1.11319 0.21829,0.24491 0.60524,0.52258 0.8599,0.61705 0.25466,0.0945 0.46302,0.3541 0.46302,0.57695 0,0.45608 0.41231,0.54372 0.66146,0.14059 0.0899,-0.14552 0.30532,-0.25518 0.47864,-0.24369 0.19466,0.0129 0.20813,0.0654 0.0352,0.13738 -0.16697,0.0695 0.0999,0.88077 0.66146,2.01116 0.86355,1.73815 0.94877,2.12015 1.03152,4.62412 0.0728,2.20347 -0.31581,10.89359 -0.58953,13.18249 -0.0348,0.29104 0.0377,0.73753 0.16119,0.99219 0.20146,0.41557 0.0676,0.45885 -1.3062,0.42232 -0.84187,-0.0224 -2.66176,-0.12517 -4.04421,-0.22841 z m -5.29166,-1.15779 c 0,-0.0572 -0.18478,-0.17489 -0.41062,-0.26155 -0.23546,-0.0904 -0.34166,-0.046 -0.24897,0.10398 0.15538,0.25141 0.65959,0.37186 0.65959,0.15757 z m -1.32292,-10.74393 c 0,-0.14552 -0.11906,-0.26459 -0.26458,-0.26459 -0.14552,0 -0.26459,0.11907 -0.26459,0.26459 0,0.14552 0.11907,0.26458 0.26459,0.26458 0.14552,0 0.26458,-0.11906 0.26458,-0.26458 z m -0.53056,-7.63917 -0.001,-0.69521 -0.4922,0.79375 c -0.53951,0.87004 -0.46884,1.39657 0.12167,0.90649 0.20532,-0.1704 0.37269,-0.62267 0.37192,-1.00503 z m 15.65359,17.42875 c 0,-0.3638 0.06,-0.51263 0.13345,-0.33073 0.0734,0.1819 0.0734,0.47956 0,0.66146 -0.0734,0.1819 -0.13345,0.0331 -0.13345,-0.33073 z m -20.39381,-1.74184 c 0.0127,-0.30823 0.0754,-0.37092 0.15985,-0.15985 0.0764,0.19099 0.067,0.4192 -0.0209,0.50712 -0.0879,0.0879 -0.15045,-0.0684 -0.13897,-0.34727 z m -0.50828,-0.63941 c 0,-0.3638 0.0601,-0.51263 0.13346,-0.33073 0.0734,0.1819 0.0734,0.47956 0,0.66146 -0.0734,0.1819 -0.13346,0.0331 -0.13346,-0.33073 z m 21.14578,-2.00642 c 0.0127,-0.30823 0.0754,-0.37092 0.15985,-0.15986 0.0764,0.191 0.067,0.4192 -0.0209,0.50712 -0.0879,0.0879 -0.15045,-0.0684 -0.13897,-0.34726 z m -20.37291,-0.52917 c 0.0127,-0.30823 0.0754,-0.37092 0.15985,-0.15985 0.0764,0.19099 0.067,0.4192 -0.0209,0.50712 -0.0879,0.0879 -0.15045,-0.0684 -0.13896,-0.34727 z m 0.26458,-4.23333 c 0.0127,-0.30823 0.0754,-0.37092 0.15985,-0.15986 0.0764,0.191 0.067,0.4192 -0.0209,0.50712 -0.0879,0.0879 -0.15046,-0.0684 -0.13897,-0.34726 z m -0.47438,-1.03629 c 0.002,-0.7276 0.0534,-0.99386 0.11418,-0.59167 0.0608,0.40218 0.0592,0.99749 -0.004,1.32291 -0.0628,0.32543 -0.11256,-0.004 -0.11058,-0.73124 z m 0.76966,-2.64583 c 0.005,-0.43656 0.0647,-0.58313 0.13177,-0.3257 0.0671,0.25744 0.0627,0.61462 -0.01,0.79375 -0.0725,0.17914 -0.12736,-0.0315 -0.12197,-0.46805 z m -0.53898,-0.66146 c 0,-0.3638 0.0601,-0.51263 0.13346,-0.33073 0.0734,0.1819 0.0734,0.47956 0,0.66146 -0.0734,0.1819 -0.13346,0.0331 -0.13346,-0.33073 z m 1.81031,-4.35001 c 0,-0.20969 0.10796,-0.44798 0.23991,-0.52953 0.13195,-0.0816 0.17759,0.09 0.10143,0.38126 -0.16155,0.6178 -0.34134,0.69589 -0.34134,0.14827 z m 0.91514,-1.18861 c 0.0845,-0.1367 0.38429,-0.23116 0.66622,-0.20993 0.62135,0.0468 0.45952,0.26324 -0.28137,0.3763 -0.29615,0.0452 -0.46933,-0.0297 -0.38485,-0.16637 z m 1.85211,-1.09357 c -0.0959,-0.1552 -0.11766,-0.33893 -0.0483,-0.40828 0.0693,-0.0694 0.1966,0.0576 0.28277,0.28218 0.17891,0.46623 0.0264,0.54824 -0.23447,0.1261 z m 6.56435,-1.75325 c 0.25743,-0.0671 0.61462,-0.0627 0.79375,0.01 0.17913,0.0725 -0.0315,0.12737 -0.46806,0.12197 -0.43656,-0.005 -0.58312,-0.0647 -0.32569,-0.13177 z"
         id="path884"
         sodipodi:nodetypes="scssssccsssssssssscscsscsscssscsssssssccssccscsssssssscssssssssssssssssscsccccccccscssscssssssscssccccc" />
      <path
         style="fill:#f1cf37;stroke-width:0.264583"
         d="m 248.10012,179.42429 c 0.45214,-0.0871 0.54332,-0.22126 0.38016,-0.55929 -0.11806,-0.24457 -0.18618,-0.68281 -0.15138,-0.97385 0.27372,-2.2889 0.66235,-10.97902 0.58953,-13.18249 -0.0828,-2.50397 -0.16797,-2.88597 -1.03152,-4.62412 -0.5616,-1.13039 -0.82843,-1.94166 -0.66146,-2.01116 0.17288,-0.072 0.15941,-0.12448 -0.0352,-0.13738 -0.17332,-0.0115 -0.3887,0.0982 -0.47864,0.24369 -0.24915,0.40313 -0.66146,0.31549 -0.66146,-0.14059 0,-0.22285 -0.20836,-0.48248 -0.46302,-0.57695 -0.25466,-0.0945 -0.64161,-0.37214 -0.8599,-0.61705 -0.5727,-0.64256 -3.85264,-1.32377 -5.15937,-1.07156 -1.11396,0.21501 -3.03148,1.06074 -4.0349,1.77961 -0.54516,0.39057 -0.59531,0.39078 -0.59531,0.002 0,-0.23326 0.29766,-0.49882 0.66146,-0.59013 0.3638,-0.0913 0.66146,-0.2575 0.66146,-0.36933 0,-0.32182 2.39561,-1.26194 3.70416,-1.45363 1.72775,-0.2531 5.40472,0.28323 7.02394,1.02453 1.77504,0.81265 3.56688,2.62666 4.52807,4.5841 0.69945,1.42441 0.75083,1.74807 0.7469,4.70464 -0.006,4.5335 -0.64292,13.70994 -0.97328,14.02292 -0.18764,0.17777 -0.31906,0.15606 -0.40054,-0.0661 -0.0673,-0.18354 -0.55304,-0.32893 -1.0914,-0.32668 -0.72378,0.003 -0.86936,0.0692 -0.57327,0.26053 0.28947,0.18707 0.11047,0.24782 -0.66146,0.2245 -0.59935,-0.0181 -0.80037,-0.0817 -0.46352,-0.14658 z m -17.3337,-1.59879 c -0.0343,-0.60963 0.38776,-7.47082 0.73613,-11.96731 0.15198,-1.96174 0.39173,-3.68219 0.53278,-3.82323 0.14104,-0.14105 0.25644,-0.504 0.25644,-0.80658 0,-0.30257 0.23175,-0.71716 0.51499,-0.92132 0.28325,-0.20415 0.45482,-0.46856 0.38126,-0.58757 -0.0735,-0.11902 -0.008,-0.21639 0.14647,-0.21639 0.1541,0 0.28019,-0.16402 0.28019,-0.36448 0,-0.20046 0.1786,-0.5127 0.39688,-0.69385 0.32504,-0.26976 0.39687,-0.25169 0.39687,0.0999 0,0.2361 -0.0962,0.42927 -0.21369,0.42927 -0.33874,0 -1.93951,3.39866 -2.036,4.32272 -0.048,0.46016 -0.16111,2.20588 -0.25124,3.87937 -0.0901,1.67349 -0.29226,4.47145 -0.44916,6.2177 -0.1569,1.74625 -0.30275,3.4938 -0.3241,3.88343 -0.0447,0.81572 -0.32895,1.23946 -0.36782,0.54835 z m 6.32279,-0.0424 c -0.0927,-0.14998 0.15819,-0.40104 0.39367,-0.31069 0.45837,0.17589 3.3364,1.26148 0.11617,0.55157 -0.13372,-0.0295 -0.42093,-0.097 -0.50984,-0.24088 z m -1.09328,-10.60703 c 0,-0.14552 0.11907,-0.26459 0.26459,-0.26459 0.14552,0 0.26458,0.11907 0.26458,0.26459 0,0.14552 -0.11906,0.26458 -0.26458,0.26458 -0.14552,0 -0.26459,-0.11906 -0.26459,-0.26458 z m -0.86691,-6.53559 c -0.0661,-0.11621 0.10122,-0.56848 0.37193,-1.00504 l 0.4922,-0.79375 10e-4,0.69521 c 0.001,0.69233 -0.63658,1.50576 -0.86552,1.10358 z"
         id="path882"
         sodipodi:nodetypes="csccscscscsssssssssssssssccssssscsssssccssssssssssssscscscc" />
      <path
         id="path880"
         style="fill:#9ca2a3;stroke-width:0.264583"
         d="m 231.36573,156.87944 -0.52917,0.0145 0.52917,0.22738 c 0.29104,0.12507 0.70776,0.23384 0.92604,0.24184 0.35277,0.0129 0.35277,-0.0139 0,-0.24184 -0.21828,-0.14106 -0.635,-0.24985 -0.92604,-0.24185 z m -2.24896,0.25011 c -0.35278,0 -0.35278,0.0283 0,0.25632 0.21828,0.14107 0.57547,0.25631 0.79375,0.25631 0.35277,0 0.35277,-0.0283 0,-0.25631 -0.21828,-0.14106 -0.57547,-0.25632 -0.79375,-0.25632 z m -2.11667,0.26459 c -0.35278,0 -0.35278,0.0283 0,0.25631 0.21828,0.14106 0.57547,0.25632 0.79375,0.25632 0.35278,0 0.35278,-0.0283 0,-0.25632 -0.21828,-0.14107 -0.57547,-0.25631 -0.79375,-0.25631 z m -2.19779,0.28628 c -0.13159,0 -0.14787,0.0781 -0.0512,0.23462 0.0899,0.14551 0.42427,0.25618 0.7431,0.24597 0.55887,-0.0179 0.56083,-0.0267 0.0506,-0.24597 -0.36413,-0.15648 -0.61101,-0.23462 -0.74259,-0.23462 z m -2.11719,0.23875 c -0.47129,0.003 -0.50558,0.0519 -0.18293,0.26045 0.52127,0.33687 1.13423,0.33687 0.92604,0 -0.0899,-0.14552 -0.42428,-0.26245 -0.74311,-0.26045 z m -2.49804,0.28319 c -0.13229,0.0128 -0.0661,0.0709 0.19844,0.24184 0.21828,0.14107 0.635,0.24985 0.92604,0.24185 l 0.52917,-0.0145 -0.52917,-0.22738 c -0.29104,-0.12507 -0.70776,-0.23385 -0.92604,-0.24185 -0.0882,-0.003 -0.15434,-0.004 -0.19844,0 z m -1.91823,0.25011 c -0.35278,0 -0.35278,0.0283 0,0.25632 0.21828,0.14106 0.57547,0.25631 0.79375,0.25631 0.35278,0 0.35278,-0.0283 0,-0.25631 -0.21828,-0.14107 -0.57547,-0.25632 -0.79375,-0.25632 z m -2.11666,0.26458 c -0.35277,0 -0.35277,0.0283 0,0.25632 0.21829,0.14107 0.57547,0.25631 0.79375,0.25631 0.35278,0 0.35278,-0.0283 0,-0.25631 -0.21828,-0.14106 -0.57546,-0.25632 -0.79375,-0.25632 z m -2.24896,0.26459 c -0.43819,0 -0.46092,0.0439 -0.13229,0.25631 0.21829,0.14106 0.63499,0.25632 0.92604,0.25632 0.43818,0 0.46093,-0.0439 0.13229,-0.25632 -0.21828,-0.14107 -0.635,-0.25631 -0.92604,-0.25631 z m -2.24896,0.26458 c -0.35278,0 -0.35278,0.0283 0,0.25632 0.21828,0.14106 0.57547,0.25631 0.79375,0.25631 0.35277,0 0.35277,-0.0283 0,-0.25631 -0.21828,-0.14107 -0.57547,-0.25632 -0.79375,-0.25632 z m -2.11667,0.26458 c -0.35278,0 -0.35278,0.0283 0,0.25632 0.21828,0.14107 0.57547,0.25631 0.79375,0.25631 0.35278,0 0.35278,-0.0283 0,-0.25631 -0.21828,-0.14106 -0.57547,-0.25632 -0.79375,-0.25632 z m -2.38125,0.29353 c -0.25016,0 -0.20125,0.084 0.1323,0.22737 0.29103,0.12506 0.70776,0.22738 0.92604,0.22738 0.25016,0 0.20126,-0.0841 -0.13229,-0.22738 -0.29105,-0.12507 -0.70777,-0.22737 -0.92605,-0.22737 z m -2.11666,0.26458 c -0.25016,0 -0.20126,0.084 0.13229,0.22738 0.29104,0.12506 0.70776,0.22737 0.92604,0.22737 0.25016,0 0.20125,-0.084 -0.13229,-0.22737 -0.29104,-0.12508 -0.70776,-0.22738 -0.92604,-0.22738 z m -1.33636,0.43046 c -0.0925,0.0196 -0.16495,0.21369 -0.18706,0.52917 -0.0445,0.63457 -0.0158,0.66327 0.23461,0.23461 0.16597,-0.28415 0.18713,-0.58698 0.0506,-0.72347 -0.0341,-0.0341 -0.0673,-0.0469 -0.0982,-0.0403 z m 0.38086,2.27842 c -0.0316,-5.3e-4 -0.0665,0.01 -0.10284,0.032 -0.14552,0.0899 -0.26458,0.34189 -0.26458,0.56017 0,0.21825 0.11906,0.32348 0.26458,0.23358 0.14552,-0.0899 0.26459,-0.3419 0.26459,-0.56018 0,-0.16369 -0.0669,-0.26378 -0.16175,-0.26561 z m 0.37569,2.01642 c -0.0356,0 -0.0999,0.0882 -0.21394,0.26458 -0.14107,0.21828 -0.25632,0.57547 -0.25632,0.79375 0,0.35278 0.0283,0.35278 0.25632,0 0.14106,-0.21828 0.25631,-0.57547 0.25631,-0.79375 0,-0.17639 -0.007,-0.26458 -0.0424,-0.26458 z m 0.22376,2.17299 c -0.0393,0.0164 -0.0949,0.0873 -0.17312,0.20826 -0.14106,0.21827 -0.25825,0.55261 -0.26045,0.7431 -0.002,0.19082 0.11493,0.27284 0.26045,0.18294 0.14552,-0.0899 0.26255,-0.42428 0.26045,-0.74311 -0.002,-0.29456 -0.0219,-0.41853 -0.0873,-0.39119 z m 0.26458,2.11667 c -0.0393,0.0164 -0.0949,0.0873 -0.17312,0.20825 -0.14106,0.21828 -0.25825,0.55313 -0.26045,0.74362 -0.002,0.19083 0.11493,0.27232 0.26045,0.18242 0.14552,-0.0899 0.26255,-0.42427 0.26045,-0.74311 -0.002,-0.29455 -0.0219,-0.41852 -0.0873,-0.39118 z m 0.2992,2.10374 c -0.0376,-0.0194 -0.10154,0.0569 -0.20773,0.22118 -0.14107,0.21828 -0.25632,0.635 -0.25632,0.92604 0,0.43819 0.0439,0.46093 0.25632,0.13229 0.14106,-0.21828 0.25631,-0.635 0.25631,-0.92604 0,-0.2191 -0.011,-0.33409 -0.0486,-0.35347 z m 0.28423,1.94097 -0.22738,0.52916 c -0.12507,0.29104 -0.23385,0.70776 -0.24184,0.92605 -0.0129,0.35278 0.0139,0.35278 0.24184,0 0.14107,-0.21829 0.24985,-0.63501 0.24185,-0.92605 z m 0.25114,2.51404 c -0.0356,0 -0.1,0.0882 -0.21394,0.26459 -0.14106,0.21828 -0.25631,0.57546 -0.25631,0.79375 0,0.35276 0.0283,0.35276 0.25631,0 0.14107,-0.21829 0.25632,-0.57547 0.25632,-0.79375 0,-0.17639 -0.007,-0.26459 -0.0424,-0.26459 z m 23.0694,0.8015 c -0.35277,0 -0.35277,0.0289 0,0.25684 0.21829,0.14106 0.57547,0.25631 0.79375,0.25631 0.35278,0 0.35278,-0.0283 0,-0.25631 -0.21828,-0.14108 -0.57546,-0.25684 -0.79375,-0.25684 z m -2.31511,0.27957 c -0.13229,0.0128 -0.0661,0.0709 0.19844,0.24185 0.21828,0.14106 0.635,0.24984 0.92604,0.24184 l 0.52917,-0.0145 -0.52917,-0.22738 c -0.29104,-0.12507 -0.70776,-0.23384 -0.92604,-0.24184 -0.0882,-0.003 -0.15434,-0.004 -0.19844,0 z m -2.18281,0.27905 c -0.25016,0 -0.20125,0.084 0.13229,0.22738 0.29104,0.12507 0.70776,0.22738 0.92604,0.22738 0.25016,0 0.20125,-0.084 -0.13229,-0.22738 -0.29104,-0.12506 -0.70776,-0.22738 -0.92604,-0.22738 z m -2.11667,0.25012 c -0.26169,0.01 -0.21662,0.0919 0.1323,0.24185 0.72736,0.31254 1.1451,0.31254 0.66145,0 -0.21828,-0.14108 -0.57547,-0.24985 -0.79375,-0.24185 z m -2.2164,0.29197 c -0.18222,-0.005 -0.31688,0.0135 -0.36018,0.0568 -0.0866,0.0866 0.10069,0.15709 0.41599,0.15709 0.4272,0 0.5655,0.15169 0.5426,0.59532 -0.0231,0.44799 -0.0609,0.48073 -0.15193,0.13229 -0.13819,-0.52877 -1.31485,-0.64659 -1.32084,-0.13229 -0.002,0.18189 -0.0846,0.74745 -0.18294,1.25677 l -0.1788,0.92604 0.40566,-0.79375 0.40566,-0.79375 -0.1173,0.92604 c -0.0647,0.50932 -0.18679,1.34276 -0.27079,1.85208 l -0.15244,0.92604 0.39015,-0.92604 0.39016,-0.92604 -0.0992,1.12448 c -0.0909,1.02648 -0.0466,1.12448 0.51005,1.12448 0.49993,0 0.62918,-0.16685 0.71778,-0.92604 0.0595,-0.50933 -0.003,-0.92604 -0.14004,-0.92604 -0.35505,0 -0.008,-2.95076 0.37465,-3.18741 0.19257,-0.11902 -0.0139,-0.26688 -0.53278,-0.38085 -0.23317,-0.0512 -0.46321,-0.0801 -0.64544,-0.0853 z m -1.95078,0.23302 c -0.64474,0.0165 -0.66735,0.0445 -0.19844,0.24598 0.72267,0.31055 0.92604,0.31055 0.92604,0 0,-0.14552 -0.32741,-0.25618 -0.7276,-0.24598 z m -2.31511,0.25373 c -0.43819,0 -0.46093,0.0445 -0.13229,0.25684 0.21828,0.14106 0.635,0.25631 0.92604,0.25631 0.43819,0 0.46093,-0.0439 0.13229,-0.25631 -0.21828,-0.14108 -0.635,-0.25684 -0.92604,-0.25684 z m -9.76891,0.0641 c -0.0392,0.002 -0.0902,0.0217 -0.15296,0.0605 -0.14552,0.0899 -0.26255,0.36475 -0.26045,0.61082 0.003,0.38554 0.0394,0.39267 0.26045,0.0506 0.27207,-0.421 0.323,-0.73141 0.15296,-0.72192 z m 7.32152,0.21549 c -0.1323,0.0128 -0.0661,0.0709 0.19843,0.24185 0.21828,0.14106 0.635,0.24984 0.92605,0.24184 l 0.52916,-0.0145 -0.52916,-0.22738 c -0.29105,-0.12507 -0.70777,-0.23384 -0.92605,-0.24184 -0.0882,-0.003 -0.15434,-0.004 -0.19843,0 z m -1.91823,0.26459 c -0.26168,0.01 -0.21663,0.0919 0.13229,0.24184 0.72735,0.31256 1.14512,0.31256 0.66146,0 -0.21828,-0.14106 -0.57546,-0.24984 -0.79375,-0.24184 z m -2.17661,0.32349 c -0.14741,-0.007 -0.12121,0.0479 0.0599,0.17053 v 5.3e-4 c 0.21828,0.14771 0.62491,0.27034 0.90382,0.27234 0.67692,0.005 0.46592,-0.1462 -0.50694,-0.36381 -0.21739,-0.0486 -0.36838,-0.0752 -0.45682,-0.0796 z m -2.18902,0.20567 -0.52916,0.0145 0.52916,0.22737 c 0.29104,0.12508 0.70776,0.23385 0.92604,0.24185 0.35278,0.0129 0.35278,-0.0139 0,-0.24185 -0.21828,-0.14106 -0.635,-0.24984 -0.92604,-0.24184 z m 15.4559,0.01 c -0.0919,-0.004 -0.19647,0.013 -0.29197,0.0512 -0.21106,0.0845 -0.14855,0.14698 0.15968,0.15968 0.27896,0.0115 0.43517,-0.0506 0.34727,-0.1385 -0.044,-0.044 -0.12306,-0.0686 -0.21498,-0.0723 z m 18.3808,0.34623 c -0.0258,-5.3e-4 -0.0448,0.005 -0.0558,0.0155 -0.25031,0.2503 0.32045,1.00646 1.22473,1.62264 0.45346,0.30899 0.76701,0.61894 0.69711,0.68884 -0.21577,0.21578 2.48872,-0.27547 2.95589,-0.53691 0.31802,-0.17794 0.0446,-0.25512 -0.98547,-0.27803 -1.13296,-0.0252 -1.66166,-0.19853 -2.57865,-0.84439 -0.55513,-0.391 -1.07703,-0.6643 -1.2578,-0.66766 z m -4.23437,0.14986 c -0.0899,0 -0.57043,0.35719 -1.06764,0.79375 -0.72867,0.63978 -1.14624,0.79489 -2.1518,0.79789 -0.90299,0.003 -1.13787,0.0748 -0.8506,0.26045 0.21828,0.14106 0.9461,0.25896 1.61748,0.26096 0.96934,0.003 1.36431,-0.13959 1.91822,-0.6935 0.63811,-0.63811 0.93232,-1.41955 0.53434,-1.41955 z m -1.15962,0.2651 c -0.0136,-0.0137 -0.12091,0.0664 -0.33073,0.231 -0.25466,0.19972 -0.46302,0.40812 -0.46302,0.46302 0,0.21776 0.21712,0.0774 0.56276,-0.36329 0.16455,-0.20982 0.24465,-0.31707 0.23099,-0.33073 z m -12.03906,0.57413 c -0.0368,-0.007 -0.0631,0.2158 -0.0651,0.61598 h 5.3e-4 c -0.003,0.5821 0.0485,0.85137 0.11472,0.59842 0.0659,-0.25298 0.0685,-0.72923 0.005,-1.05834 -0.0198,-0.10285 -0.0386,-0.153 -0.0553,-0.15606 z m 10.15649,0.10697 c -0.14082,0.006 -0.2341,0.055 -0.2341,0.13746 0,0.13189 0.23813,0.23978 0.52917,0.23978 0.29104,0 0.52917,-0.0455 0.52917,-0.10129 0,-0.0558 -0.23813,-0.16368 -0.52917,-0.23978 -0.10914,-0.0285 -0.21058,-0.04 -0.29507,-0.0362 z m 7.99641,0.94464 c -0.027,0.003 -0.0165,0.0358 0.0382,0.0961 0.10946,0.12067 0.002,0.43736 -0.23926,0.70383 -0.24117,0.26647 -0.37924,0.48421 -0.30644,0.48421 0.0728,0 0.33724,-0.22622 0.58756,-0.50281 0.36248,-0.40054 0.3841,-0.54376 0.10697,-0.70383 -0.0957,-0.0553 -0.16007,-0.0808 -0.18707,-0.0775 z m -20.30471,0.84646 c -0.0401,-0.006 -0.068,0.0911 -0.076,0.28371 -0.0115,0.27887 0.0511,0.43516 0.13901,0.34726 0.0879,-0.0879 0.0976,-0.31646 0.0212,-0.50746 -0.0317,-0.0791 -0.0602,-0.11986 -0.0842,-0.12351 z m 13.86582,0.4377 c -0.15486,0 -0.12938,0.16812 0.0605,0.39688 0.18116,0.21828 0.37076,0.39687 0.42116,0.39687 0.0504,0 0.0228,-0.17859 -0.061,-0.39687 -0.0838,-0.21828 -0.27288,-0.39688 -0.42065,-0.39688 z m 5.71335,0.35605 c -0.0401,-0.006 -0.068,0.0911 -0.076,0.28371 -0.0115,0.27897 0.0511,0.43516 0.13901,0.34726 0.0879,-0.0879 0.0976,-0.31646 0.0212,-0.50746 -0.0317,-0.0791 -0.0602,-0.11986 -0.0842,-0.12351 z m -19.10839,0.0786 c -0.60583,-0.004 -1.60189,0.0856 -2.02262,0.22789 -0.14552,0.0492 0.2712,0.0975 0.92604,0.10646 0.65485,0.009 1.35549,-0.0873 1.55701,-0.21498 0.12609,-0.0798 -0.0969,-0.11673 -0.46043,-0.11937 z m 22.45134,0.88832 c -0.0137,-0.0136 -0.12091,0.0664 -0.33073,0.23099 -0.25466,0.19972 -0.46302,0.40812 -0.46302,0.46302 0,0.21777 0.21712,0.0774 0.56276,-0.36328 0.16455,-0.20983 0.24465,-0.31707 0.23099,-0.33073 z m -1.44591,0.10542 c -0.0806,0.0191 -0.18228,0.15053 -0.25683,0.34623 -0.14359,0.37708 -0.113,0.40767 0.14831,0.14831 0.18082,-0.17947 0.26185,-0.39289 0.18035,-0.47439 -0.0204,-0.0204 -0.045,-0.0265 -0.0718,-0.0202 z m -21.83742,1.25254 c -0.11989,0 -0.23978,0.0181 -0.33073,0.0548 -0.18191,0.0734 -0.0331,0.13332 0.33073,0.13332 0.36383,0 0.51262,-0.0599 0.33073,-0.13332 -0.0909,-0.0367 -0.21085,-0.0548 -0.33073,-0.0548 z m -3.58066,1.1462 c -0.0479,-0.0178 -0.0816,0.13384 -0.0816,0.4067 0,0.36383 0.0599,0.51263 0.13332,0.33073 0.0734,-0.18191 0.0734,-0.47956 0,-0.66146 -0.0183,-0.0455 -0.0357,-0.07 -0.0517,-0.076 z m 31.74691,0.93565 c -0.62654,0 -0.69633,0.5142 -0.17106,1.25884 1.08622,1.53992 2.08778,3.87701 2.53887,5.9247 0.12956,0.58818 0.29731,0.70125 1.04076,0.70125 0.8718,0 0.88575,-0.0188 0.86143,-1.13895 -0.0148,-0.68317 -0.11313,-1.01669 -0.24598,-0.83354 -0.13338,0.18394 -0.16965,0.0685 -0.0909,-0.29042 0.0718,-0.32762 0.0439,-0.54217 -0.0615,-0.47697 -0.10546,0.0652 -0.51093,-0.5328 -0.90125,-1.3286 -0.80229,-1.63587 -0.84471,-1.80861 -0.37878,-1.54048 0.19214,0.1106 0.23818,0.0893 0.11007,-0.0506 -0.12126,-0.13248 -0.307,-0.24081 -0.41291,-0.24081 -0.10588,0 -0.58436,-0.44649 -1.06349,-0.99219 -0.47913,-0.5457 -1.03063,-0.99219 -1.22523,-0.99219 z m -31.19759,0.10284 c -0.0568,-0.002 -0.11471,0.0115 -0.1664,0.0434 -0.1378,0.0852 -0.1808,0.26782 -0.0956,0.40566 0.0852,0.1378 0.26782,0.1808 0.40566,0.0956 0.1378,-0.0852 0.1808,-0.26731 0.0956,-0.40515 -0.0532,-0.0861 -0.14467,-0.13558 -0.23926,-0.13952 z m 4.05815,0.1959 c -0.14387,-0.002 -0.29762,0.014 -0.42633,0.0475 -0.25743,0.0671 -0.11101,0.12678 0.32556,0.13178 0.43655,0.005 0.64732,-0.0495 0.46819,-0.12196 -0.0896,-0.0363 -0.22355,-0.0556 -0.36742,-0.0574 z m 3.79821,2.74401 c -64.33105,-67.19195 -32.16552,-33.59597 0,0 z m 3.90623,-2.21761 -1.12448,1.17099 c -0.90188,0.93949 -1.3246,1.18343 -2.13527,1.23093 -0.55592,0.0326 -1.08031,0.17146 -1.16531,0.30903 -0.085,0.1376 -0.0171,0.16532 0.1509,0.0615 0.5429,-0.33552 0.32385,0.27408 -0.28525,0.79375 -0.58486,0.49904 -0.58683,0.49856 -0.19844,-0.0253 0.36557,-0.49308 0.35972,-0.50361 -0.0822,-0.15658 -0.63533,0.49895 -0.23695,0.86382 1.19683,1.09709 v 5.3e-4 c 1.64447,0.26759 1.69751,0.26701 1.26194,-0.0145 -0.21808,-0.14107 -0.31734,-0.25845 -0.22014,-0.26045 0.0972,-0.002 0.38467,-0.0839 0.63872,-0.18138 0.34873,-0.13384 0.40859,-0.0852 0.24391,0.19843 -0.12928,0.2228 -0.12009,0.28578 0.0227,0.15503 0.13248,-0.12127 0.2424,-0.35939 0.2434,-0.52916 0.001,-0.16978 0.32886,-0.29579 0.7276,-0.28009 0.39876,0.0157 0.72503,-0.0864 0.72503,-0.22686 0,-0.14044 -0.1786,-0.18664 -0.39688,-0.10284 -0.21828,0.0834 -0.39687,0.0874 -0.39687,0.009 0,-0.0786 0.17859,-0.32122 0.39687,-0.5395 0.2317,-0.2317 0.39688,-0.87834 0.39688,-1.5534 z m -1.10846,0.76275 c -0.0728,0 -0.34794,0.23812 -0.61133,0.52917 -0.26341,0.29103 -0.41955,0.52916 -0.34675,0.52916 0.0728,0 0.34794,-0.23813 0.61133,-0.52916 0.2634,-0.29105 0.41955,-0.52917 0.34675,-0.52917 z m -6.96133,0.63045 c -61.55534,-66.64234 -30.77767,-33.32117 0,0 z m 2.71352,0.51676 c -0.20704,0.0835 -0.21998,0.14203 -0.0341,0.15503 0.16408,0.0115 0.43015,-0.13773 0.59118,-0.33176 0.22647,-0.88598 -0.42278,0.0591 -0.55708,0.17673 z m -5.9526,-0.51578 c -0.0698,0.0131 -0.13234,0.0524 -0.17054,0.11421 -0.0764,0.12364 0.0346,0.22479 0.2465,0.22479 0.44613,0 0.48466,-0.0837 0.13849,-0.29765 -0.0677,-0.0419 -0.14463,-0.0545 -0.21445,-0.0413 z m 5.02811,1.24282 c -0.14533,-0.002 -0.41004,0.0531 -0.85317,0.16433 -0.60518,0.15189 -0.61465,0.17831 -0.1323,0.3669 0.70818,0.27685 0.70569,0.27719 0.5085,-0.0419 -0.0972,-0.15734 -0.0128,-0.24514 0.19069,-0.19844 0.2008,0.0461 0.39112,-0.006 0.42323,-0.11472 0.0341,-0.11605 0.008,-0.1745 -0.13695,-0.17622 z m -1.74873,0.77153 c -0.40764,0 -0.57568,0.16907 -0.59118,0.59531 -0.0119,0.32742 -0.11541,0.95251 -0.22996,1.38907 -0.2015,0.76793 -0.19387,0.77652 0.23255,0.26458 0.4246,-0.50977 0.43455,-0.49522 0.27233,0.39687 -0.0926,0.50933 -0.2315,1.2237 -0.30851,1.5875 -0.13675,0.64581 -0.12985,0.64894 0.28009,0.1323 0.36109,-0.45517 0.4214,-0.46715 0.4284,-0.0847 0.005,0.24697 0.2729,0.49595 0.60358,0.55965 0.32742,0.0631 0.61557,0.13058 0.64027,0.15038 0.0247,0.0198 -0.0556,-0.35077 -0.17828,-0.82372 -0.1227,-0.47294 -0.30343,-1.60403 -0.40153,-2.51354 -0.15763,-1.46086 -0.2448,-1.65365 -0.74776,-1.65365 z m 1.88464,0.0801 c -0.0513,0.005 -0.13567,0.0952 -0.22944,0.25631 -0.15004,0.25767 -0.37435,0.4062 -0.49816,0.3297 -0.17688,-0.10932 -0.19025,0.32139 -0.0269,0.85525 0.0111,0.0364 0.16898,0.064 0.35088,0.062 0.25478,-0.003 0.252,-0.054 -0.0124,-0.2217 -0.27411,-0.17391 -0.26085,-0.28619 0.0661,-0.55758 0.22517,-0.18687 0.40501,-0.47413 0.40101,-0.63821 -0.002,-0.0615 -0.0204,-0.0888 -0.0512,-0.0858 z m 2.44068,1.27744 c -0.11989,0 -0.23978,0.0181 -0.33073,0.0548 -0.1819,0.0735 -0.0331,0.13332 0.33073,0.13332 0.36383,0 0.51263,-0.0599 0.33073,-0.13332 -0.0909,-0.0367 -0.21084,-0.0548 -0.33073,-0.0548 z m 24.6569,0 c -0.0758,-0.0222 -0.0454,0.20066 0.11419,0.6165 0.0907,0.23647 0.22077,0.37454 0.28887,0.30644 0.0681,-0.0681 -0.003,-0.34111 -0.15658,-0.60668 -0.11694,-0.20114 -0.20103,-0.30296 -0.24648,-0.31626 z m -27.73527,1.37976 c -0.0401,-0.006 -0.068,0.0911 -0.076,0.28371 -0.0115,0.27895 0.0511,0.43516 0.13901,0.34726 0.0879,-0.0879 0.0976,-0.31646 0.0212,-0.50746 -0.0317,-0.0791 -0.0602,-0.11987 -0.0842,-0.12351 z m 30.77951,1.28829 c -0.18762,0.007 -0.1506,0.0677 0.0832,0.21549 0.48218,0.30492 0.4658,0.30339 0.62426,0.047 0.0713,-0.11531 -0.1284,-0.2289 -0.44392,-0.2527 -0.11361,-0.009 -0.201,-0.0121 -0.26355,-0.01 z m -31.69211,1.03405 c -0.0919,-0.004 -0.19648,0.013 -0.29197,0.0512 -0.21107,0.0845 -0.14855,0.1475 0.15968,0.1602 0.27886,0.0115 0.43516,-0.0511 0.34726,-0.13901 -0.044,-0.0439 -0.12306,-0.0686 -0.21497,-0.0724 z m 33.15766,0.0724 c -0.0164,0.003 -0.0338,0.009 -0.0512,0.0202 -0.13917,0.086 -0.18587,0.33157 -0.10385,0.54519 0.20987,0.54693 0.35709,0.48228 0.35709,-0.15659 0,-0.26214 -0.0871,-0.42881 -0.20207,-0.40876 z m -11.31145,5.71595 c -0.56344,0 -1.18649,0.30092 -1.18649,0.57309 0,0.13838 0.0893,0.19659 0.19844,0.12919 0.10914,-0.0674 0.21589,0.16832 0.23719,0.52348 0.0338,0.56266 -0.0173,0.60201 -0.39687,0.30541 -0.38822,-0.30338 -0.39641,-0.29069 -0.0749,0.11937 0.19839,0.25301 0.46628,0.39493 0.59531,0.31523 0.12904,-0.0797 0.23461,-0.0187 0.23461,0.13539 0,0.15411 0.29765,0.28009 0.66146,0.28009 0.37909,0 0.66146,-0.15277 0.66146,-0.35761 0,-0.7334 -0.59306,-2.02364 -0.93018,-2.02364 z m -6.59288,0.0723 c -0.28023,-0.007 -0.32413,0.19204 -0.36845,0.84956 -0.0352,0.52337 0.0105,1.07238 0.1018,1.22008 0.32512,0.52607 1.01317,0.0919 1.23972,-0.78238 0.26556,-1.02485 0.27859,-0.99879 -0.60513,-1.22059 -0.15478,-0.0388 -0.27453,-0.0643 -0.36794,-0.0667 z m -0.8201,0.0501 c -0.0478,-0.0178 -0.0816,0.13384 -0.0816,0.40669 0,0.36383 0.0599,0.51263 0.13332,0.33073 0.0734,-0.1819 0.0734,-0.47956 0,-0.66146 -0.0183,-0.0455 -0.0357,-0.07 -0.0517,-0.076 z m 2.33577,0.71572 c -0.054,-0.004 -0.0502,0.0515 0.0176,0.16123 0.0976,0.15795 0.0564,0.3618 -0.0915,0.4532 -0.14774,0.0913 -0.26848,0.29777 -0.26872,0.45889 v 5.3e-4 c 9e-5,0.16083 0.0338,0.24294 0.0749,0.18241 0.34542,-0.48769 0.84787,-0.93668 0.26765,-1.25627 z m -2.35745,1.10075 c -0.0103,0.003 -0.0203,0.008 -0.0289,0.0171 -0.0693,0.0694 -0.0473,0.25304 0.0486,0.40824 0.26087,0.42213 0.41352,0.34014 0.23461,-0.12609 -0.0754,-0.19651 -0.18228,-0.31827 -0.25425,-0.2992 z m 5.83634,0.0486 c -0.0383,-0.005 -0.0803,0.18772 -0.14883,0.601 -0.0872,0.52578 -0.0481,0.77259 0.0987,0.6258 0.13333,-0.13331 0.19776,-0.52396 0.14366,-0.86817 -0.0364,-0.2317 -0.0638,-0.35487 -0.0935,-0.35863 z m 6.11951,1.7834 c -79.38337,-77.7318 -39.69169,-38.8659 0,0 z m -11.81529,0.23099 c -0.0919,-0.004 -0.19648,0.013 -0.29197,0.0512 -0.21107,0.0845 -0.14854,0.14749 0.15968,0.16019 0.27887,0.0115 0.43516,-0.0511 0.34727,-0.13901 -0.044,-0.044 -0.12306,-0.0686 -0.21498,-0.0723 z m -1.51567,0.0284 c -0.0748,7.9e-4 0.0472,0.13612 0.32712,0.44545 0.51465,0.56869 0.94619,0.7188 0.94619,0.32918 0,-0.12216 -0.32506,-0.36981 -0.72244,-0.55087 -0.3153,-0.14366 -0.49266,-0.22448 -0.55087,-0.22376 z m 8.94623,0.23771 c -0.11989,0 -0.23978,0.0181 -0.33073,0.0548 -0.18191,0.0735 -0.0331,0.13332 0.33073,0.13332 0.36383,0 0.51262,-0.0599 0.33073,-0.13332 -0.0909,-0.0367 -0.21085,-0.0548 -0.33073,-0.0548 z m -9.12813,0.36227 0.64131,0.7276 c 0.94529,1.0538 0.73177,0.48579 0.0863,-0.0858 z m 11.77396,0.39687 c -0.0137,-0.0137 -0.12091,0.0664 -0.33073,0.231 -0.25466,0.19972 -0.46302,0.40812 -0.46302,0.46302 0,0.21776 0.21712,0.0774 0.56276,-0.36329 0.16455,-0.20982 0.24465,-0.31707 0.23099,-0.33073 z"
         sodipodi:nodetypes="ccsssscsssssssssscscsscsscssccsssssssssssssssssssssssssssssssssssssssssssscsssscsssssssscscssscscsssssssccsssscsssssscssssscssssssssssssssssssccccscccccccssssssssssssssssscscssccssssssssscccscsccsssscsssssscssssssssscscsssssssssssscsscccssssscssssssssssssssscssssccscsscsscssssssssssscssssssssssssscssssssssssccssssccsssssssscsscccccssssssssssssssssssssssssssssccccccssssssssscssssssssssssssssssssssssssssssscsssssssssscssssssscccsccsssssssccsssccsssssssssssscsssssssssccsssssssssssssccsssssssssssssssssccssssss" />
      <path
         style="fill:#6da24e;stroke-width:0.264583"
         d="m 247.50531,212.94844 c -0.0899,-0.14552 -0.0445,-0.26458 0.10106,-0.26458 0.14552,0 0.33817,0.11906 0.42811,0.26458 0.0899,0.14552 0.0444,0.26459 -0.10107,0.26459 -0.14552,0 -0.33816,-0.11907 -0.4281,-0.26459 z m -11.24244,-4.89479 c -0.18296,-0.74489 0.0525,-0.92604 1.20392,-0.92604 0.8444,0 1.14961,-0.0916 1.01745,-0.30546 -0.11943,-0.19325 -0.0723,-0.23348 0.12827,-0.10952 0.17438,0.10777 0.51328,0.0369 0.75312,-0.15755 0.23985,-0.19443 0.35432,-0.21708 0.2544,-0.0503 -0.0999,0.16676 -0.004,0.64301 0.21217,1.05833 0.49587,0.95078 0.49799,1.4194 0.01,2.11673 -0.21315,0.3043 -0.30245,0.64754 -0.19844,0.76274 0.104,0.11521 0.051,0.13046 -0.11776,0.0339 -2.06968,0.20451 -2.72521,0.65914 -3.26313,-2.42283 z m 6.1197,-1.19067 c 0.14255,0 0.17825,0.13094 0.0793,0.29098 -0.11903,0.1926 0.0207,0.18367 0.41319,-0.0264 0.39253,-0.21007 0.53222,-0.219 0.41319,-0.0264 -0.11547,0.18683 0.10368,0.29098 0.6123,0.29098 1.02525,0 2.22464,-0.45814 2.02882,-0.77498 -0.0839,-0.13573 -0.0131,-0.33295 0.15726,-0.43825 0.20765,-0.12833 0.23838,-0.0759 0.0932,0.15898 -0.15725,0.25444 -0.096,0.30415 0.2237,0.18147 0.62381,-0.23938 0.55362,-0.031 -0.38155,1.13271 -0.59627,7.54492 -5.28296,-0.56518 -3.63941,-0.78909 z m 1.81545,-1.58749 c -0.23847,-0.15411 -0.2711,-0.2581 -0.0818,-0.26054 0.17331,-0.002 0.3887,0.11502 0.47863,0.26054 0.20302,0.32848 0.11142,0.32848 -0.39687,0 z"
         id="path878"
         sodipodi:nodetypes="ssssscsssssccsccccsssssssccccscc" />
      <path
         style="fill:#dc3938;stroke-width:0.264583"
         d="m 238.08195,202.29666 c -0.20402,-0.20402 -0.54848,-0.31531 -0.76546,-0.24732 -0.21698,0.068 -0.31202,0.0348 -0.21119,-0.0739 0.10083,-0.10863 -0.37542,-0.49159 -1.05833,-0.85103 -2.89112,-1.52169 -4.56138,-4.10291 -4.73183,-7.31258 -0.15102,-2.84363 0.50593,-10.56072 0.91048,-10.69536 0.21594,-0.0719 0.33073,0.16765 0.33073,0.69011 0,0.4401 0.1265,0.87837 0.28111,0.97392 0.59581,1.30194 0.92439,1.14825 1.85962,1.18256 1.02038,-0.0136 1.7671,-1.15709 2.05872,-2.10977 0.24817,-0.82833 0.24359,-1.16259 -0.0218,-1.5875 -0.26833,-0.42967 -0.26993,-0.64424 -0.008,-1.06381 0.411,-0.6581 0.42746,-2.0277 0.0273,-2.27498 -0.16799,-0.10382 -0.516,0.0938 -0.78787,0.4474 l -0.48698,0.63337 -0.006,-0.76222 c -0.006,-0.73425 0.0305,-0.75621 0.98631,-0.59823 0.5457,0.0902 1.67679,0.16531 2.51354,0.16691 1.51728,0.003 1.52135,0.005 1.52135,0.80597 0,0.44168 0.18176,1.08046 0.40391,1.4195 0.30993,0.47302 0.34071,0.78264 0.13229,1.33083 -0.40979,1.07782 -0.32968,1.85769 0.26902,2.6188 0.62524,0.79487 2.05908,1.15646 2.86835,0.72336 0.84808,-0.45388 1.40272,-1.73403 1.20588,-2.78326 -0.15963,-0.85091 -0.10825,-0.93097 0.94107,-1.46629 0.61046,-0.31144 1.03019,-0.64598 0.93274,-0.74344 -0.0975,-0.0975 -0.92874,-0.13854 -1.8473,-0.0913 -1.71139,0.088 -2.8576,-0.2757 -3.56856,-1.13235 -0.42992,-0.51802 -0.5951,-0.51475 4.98078,-0.0987 l 4.3338,0.32334 -0.18701,3.44021 c -0.21719,3.99529 -0.38513,4.50843 -1.33405,4.07607 -1.27005,-0.57867 -1.91587,0.71091 -0.96625,1.92942 1.47088,1.88734 1.86963,3.89627 1.25193,6.30736 -0.23219,0.90635 -0.34393,1.77452 -0.2483,1.92926 0.1,0.16173 0.049,0.20413 -0.11996,0.0997 -0.16602,-0.10261 -0.48915,0.13857 -0.74282,0.55443 -0.65908,1.08048 -2.72494,2.95742 -3.93989,3.5796 -0.58208,0.29808 -1.0881,0.52437 -1.12448,0.50285 -0.0364,-0.0215 -0.0959,-0.03 -0.13229,-0.0189 -0.81541,0.24956 -1.46094,0.33871 -3.13715,0.43328 -1.4948,0.0844 -2.1081,0.0181 -2.38361,-0.25738 z m -5.96007,-22.5876 c 0.17766,-1.45068 0.22945,-1.52175 0.94366,-1.29507 0.38659,0.1227 0.5491,0.39752 0.5491,0.92856 0,1.16625 -0.2623,1.59131 -0.98198,1.59131 -0.6311,0 -0.65405,-0.055 -0.51078,-1.2248 z"
         id="path876"
         sodipodi:nodetypes="cscsscscccscssccscssssssssssccsssscssssccccsssss" />
      <rect
         style="fill:#fdfdfd;fill-opacity:1;stroke:none;stroke-width:0.3;stroke-linecap:round;stroke-linejoin:round;paint-order:stroke markers fill"
         id="rect6406"
         width="9.2002401"
         height="4.2240114"
         x="221.09512"
         y="171.70312" />
      <path
         id="path874"
         style="fill:#534f4f;stroke-width:0.264583"
         d="m 232.86387,157.18439 c -0.0882,7.9e-4 -0.18755,0.004 -0.29921,0.009 -0.97687,0.0417 -0.97891,0.0438 -0.13229,0.14883 0.63739,0.0791 0.8599,0.23978 0.8599,0.6196 0,0.28182 0.0595,0.51212 0.13229,0.51212 0.0728,0 0.13229,-0.29765 0.13229,-0.66146 0,-0.52108 -0.0756,-0.63344 -0.69298,-0.62787 z m -2.48202,0.26303 c -0.16785,0 -0.33569,0.0168 -0.46302,0.0501 -0.25466,0.0665 -0.0463,0.12092 0.46302,0.12092 0.50932,0 0.71768,-0.0544 0.46302,-0.12092 -0.12733,-0.0333 -0.29518,-0.0501 -0.46302,-0.0501 z m -2.38125,0.26458 c -0.16785,0 -0.33569,0.0168 -0.46302,0.0501 -0.25466,0.0665 -0.0463,0.12092 0.46302,0.12092 0.50932,1e-5 0.71768,-0.0543 0.46302,-0.12092 -0.12733,-0.0333 -0.29518,-0.0501 -0.46302,-0.0501 z m -2.11667,0.2651 c -0.16784,0 -0.33569,0.0164 -0.46302,0.0496 -0.25466,0.0665 -0.0463,0.12093 0.46302,0.12093 0.50932,0 0.71768,-0.0543 0.46302,-0.12093 -0.12733,-0.0333 -0.29517,-0.0496 -0.46302,-0.0496 z m -2.11666,0.26459 c -0.16784,0 -0.33569,0.0163 -0.46302,0.0496 -0.25466,0.0665 -0.0463,0.12092 0.46302,0.12092 0.50933,0 0.71768,-0.0543 0.46302,-0.12092 -0.12733,-0.0333 -0.29517,-0.0496 -0.46302,-0.0496 z m -2.14819,0.26613 c -0.14386,-0.002 -0.29761,0.0135 -0.42633,0.047 v 5.3e-4 c -0.25743,0.0671 -0.11101,0.12677 0.32556,0.13177 0.43655,0.005 0.64732,-0.0495 0.46819,-0.12195 -0.0896,-0.0364 -0.22355,-0.0556 -0.36742,-0.0574 z m -2.11976,0.262 c -0.19183,-7.9e-4 -0.39303,0.0143 -0.55759,0.046 v -5.2e-4 c -0.32911,0.0633 -0.12216,0.1174 0.45992,0.1204 0.5821,0.003 0.85137,-0.0485 0.59841,-0.11472 -0.12649,-0.0329 -0.30892,-0.0502 -0.50074,-0.0512 z m -2.11667,0.26459 c -0.19182,-8e-4 -0.39303,0.0143 -0.55759,0.046 v -5.3e-4 c -0.32912,0.0633 -0.12216,0.1174 0.45992,0.12041 0.5821,0.003 0.85138,-0.0485 0.59841,-0.11473 -0.12648,-0.0329 -0.30892,-0.0502 -0.50074,-0.0512 z m -2.34663,0.26561 c -0.16784,0 -0.33569,0.0163 -0.46302,0.0496 -0.25466,0.0665 -0.0463,0.12092 0.46302,0.12092 0.50933,1e-5 0.71768,-0.0544 0.46302,-0.12092 -0.12733,-0.0333 -0.29517,-0.0496 -0.46302,-0.0496 z m -2.15129,0.26355 c -0.19182,-7.9e-4 -0.39303,0.0143 -0.55759,0.046 v -5.2e-4 c -0.32912,0.0633 -0.12217,0.1174 0.45992,0.1204 0.58209,0.003 0.85139,-0.0485 0.59842,-0.11472 -0.12648,-0.0329 -0.30893,-0.0502 -0.50075,-0.0512 z m -2.08204,0.26562 c -0.16785,0 -0.33569,0.0163 -0.46302,0.0496 -0.25466,0.0665 -0.0463,0.12092 0.46302,0.12092 0.50932,0 0.71768,-0.0543 0.46302,-0.12092 -0.12733,-0.0333 -0.29518,-0.0496 -0.46302,-0.0496 z m -2.38125,0.26458 c -0.16785,0 -0.33569,0.0163 -0.46302,0.0496 -0.25466,0.0665 -0.0463,0.12092 0.46302,0.12092 0.50932,0 0.71768,-0.0543 0.46302,-0.12092 -0.12733,-0.0333 -0.29518,-0.0496 -0.46302,-0.0496 z m 18.15392,0.003 c -0.0596,0.002 -0.12295,0.007 -0.19068,0.0139 -0.80595,0.0812 -0.84082,0.14361 -1.73581,3.12539 -0.5023,1.67349 -0.98165,3.61589 -1.06505,4.31653 l 0.15903,0.78284 1.29411,0.3096 1.60455,-0.18138 0.17208,0.91725 c 0.14921,0.79531 0.25721,0.90082 0.81184,0.79479 0.52638,-0.10062 0.63975,-0.28086 0.63975,-1.01751 0,-0.49235 0.11907,-0.89504 0.26459,-0.89504 0.14553,0 0.26458,-0.29766 0.26458,-0.66145 0,-0.41159 -0.14993,-0.66146 -0.39687,-0.66146 -0.21829,0 -0.40015,-0.14883 -0.40515,-0.33073 -0.005,-0.1819 -0.17954,-1.58089 -0.3886,-3.10886 -0.20907,-1.52797 -0.38361,-2.93427 -0.38861,-3.12539 -0.005,-0.20036 -0.22241,-0.29472 -0.63976,-0.27853 z m -20.27059,0.26148 c -0.16784,0 -0.33569,0.0164 -0.46302,0.0496 -0.25466,0.0665 -0.0463,0.12092 0.46302,0.12092 0.50933,0 0.71768,-0.0543 0.46302,-0.12092 -0.12733,-0.0332 -0.29517,-0.0496 -0.46302,-0.0496 z m -2.26394,0.26717 c -0.30784,0.001 -0.58277,0.0598 -0.67852,0.15554 -0.13309,0.1331 0.19086,0.17379 0.75965,0.0951 0.91312,-0.12643 0.932,-0.14535 0.23254,-0.23255 -0.10447,-0.013 -0.21106,-0.0185 -0.31367,-0.0181 z m -0.53279,1.23403 c -0.0342,0.0185 -0.0586,0.17777 -0.062,0.45062 -0.005,0.43656 0.0495,0.64732 0.12196,0.46819 0.0725,-0.17913 0.0769,-0.53632 0.01,-0.79375 -0.0252,-0.0965 -0.0492,-0.13614 -0.0698,-0.12506 z m 22.38158,1.79421 c 0.20205,-0.0753 0.45477,1.09119 0.49196,2.42672 0.0301,1.07998 1.1e-4,1.12448 -0.76223,1.12448 -0.43656,0 -0.79375,-0.0379 -0.79375,-0.0842 0,-0.15293 0.81813,-2.95035 0.98133,-3.35535 0.026,-0.0646 0.0538,-0.10086 0.0827,-0.11162 z m -22.09529,0.33589 c -0.0434,-0.0249 -0.0739,0.18749 -0.0739,0.56948 0,0.50932 0.0544,0.71768 0.12092,0.46302 0.0666,-0.25466 0.0666,-0.67138 0,-0.92604 -0.0166,-0.0637 -0.0326,-0.0981 -0.047,-0.10646 z m 0.26458,2.11667 c -0.0434,-0.0249 -0.0739,0.18748 -0.0739,0.56947 0,0.50932 0.0544,0.71768 0.12093,0.46302 0.0666,-0.25466 0.0666,-0.67138 0,-0.92604 -0.0166,-0.0637 -0.0326,-0.0981 -0.047,-0.10645 z m 0.26459,2.38125 c -0.0434,-0.0249 -0.0739,0.18748 -0.0739,0.56947 0,0.50932 0.0544,0.71768 0.12092,0.46302 0.0665,-0.25466 0.0665,-0.67138 0,-0.92604 -0.0166,-0.0637 -0.0326,-0.0981 -0.047,-0.10645 z m 0.24288,2.10323 c -0.0342,0.0185 -0.0586,0.17777 -0.062,0.45062 -0.005,0.43656 0.0495,0.64732 0.12195,0.46819 0.0725,-0.17913 0.0769,-0.53632 0.01,-0.79375 -0.0252,-0.0965 -0.0492,-0.13614 -0.0698,-0.12506 z m 24.19955,1.37666 c -0.54143,0 -0.63533,0.58386 -0.33538,2.08359 0.091,0.45475 0.20018,0.82683 0.24288,0.82683 0.56732,0 0.91467,-0.45469 0.91467,-1.19735 0,-1.21892 -0.23726,-1.71307 -0.82217,-1.71307 z m -1.1033,0.13229 -0.23615,0.86196 c -0.16215,0.59241 -0.0312,1.15401 0.19379,1.56159 0.29699,0.5382 0.23444,0.44162 0.32714,-0.003 0.0562,-0.2692 0.0149,-0.92404 -0.0915,-1.45521 z m -0.84025,0.21188 c -0.0334,-0.004 -0.0701,0.007 -0.11007,0.0315 -0.0959,0.0593 -0.12198,0.68366 -0.0579,1.38751 l 0.11627,1.27951 0.18655,-1.05317 c 0.12818,-0.72366 0.7067,0.81123 0.67511,0.51698 -0.0286,-0.26632 -0.7486,-2.10097 -0.80998,-2.16235 z m 2.01744,0.031 c 0.20241,0.0404 0.44291,0.70181 0.46509,1.41077 0.0102,0.32742 -0.0856,0.59531 -0.2129,0.59531 -0.30232,0 -0.6117,-1.55738 -0.38293,-1.92753 0.0395,-0.0639 0.084,-0.0879 0.13074,-0.0786 z m -2.88974,0.0217 -0.0331,1.27227 c -0.0375,1.44254 -0.56224,1.48984 -0.56224,0.0506 0,-0.49214 -0.13211,-0.9761 -0.29353,-1.0759 -0.20835,-0.12876 -0.2379,0.15417 -0.1018,0.97617 0.10545,0.63688 0.24443,1.24736 0.30903,1.35651 0.0646,0.10913 0.28207,0.19843 0.48317,0.19843 0.5455,0 0.61438,-0.27626 0.39636,-1.5875 z m -2.00246,0.27337 c -0.11059,0.004 -0.23126,0.056 -0.35863,0.16174 -0.29412,0.24407 -0.26881,1.19963 0.0605,2.27687 0.0556,0.1819 0.28357,0.33073 0.50643,0.33073 0.43935,0 0.48597,-0.18238 0.40617,-1.5875 -0.0434,-0.76285 -0.28266,-1.19278 -0.61443,-1.18184 z m -19.09496,0.0832 c -0.0434,-0.0249 -0.0739,0.18749 -0.0739,0.56948 0,0.50932 0.0544,0.71768 0.12093,0.46302 0.0666,-0.25466 0.0666,-0.67138 0,-0.92604 -0.0166,-0.0637 -0.0326,-0.0981 -0.047,-0.10646 z m 17.60771,0.0403 c -0.56269,0 -0.60082,0.0834 -0.45061,0.99219 0.0902,0.5457 0.1833,1.23031 0.2067,1.52135 0.0272,0.33842 0.0825,0.26688 0.15297,-0.19843 0.0606,-0.40018 0.22996,-0.72761 0.3762,-0.72761 0.14625,0 0.0655,-0.20012 -0.17932,-0.44493 -0.41707,-0.4171 -0.41526,-0.46706 0.0315,-0.79375 0.4448,-0.32524 0.43569,-0.34882 -0.13746,-0.34882 z m 1.57149,0.26459 c 0.14551,0 0.26457,0.47625 0.26457,1.05833 0,1.08143 -0.044,1.1911 -0.35294,0.88211 -0.27999,-0.27999 -0.20436,-1.94044 0.0884,-1.94044 z m -3.55844,0.004 c -0.60707,-0.003 -0.70997,0.0667 -0.46303,0.31368 0.17464,0.17462 0.3173,0.69022 0.3173,1.14618 0,0.45597 0.0792,0.90863 0.17621,1.00563 0.35066,0.35065 0.3961,0.15736 0.21498,-0.91468 -0.13391,-0.79263 -0.086,-1.1533 0.17518,-1.31878 0.24839,-0.15734 0.11863,-0.22903 -0.42064,-0.23203 z m -2.58124,0.12816 -0.22583,0.92604 c -0.1242,0.50932 -0.16343,1.13441 -0.0873,1.38907 0.20717,0.69324 0.72144,0.56592 0.53433,-0.1323 -0.0877,-0.32742 -0.17327,-0.9525 -0.19016,-1.38906 z m 0.97048,0.26459 c -0.4424,0 -0.50455,0.15343 -0.42685,1.05833 0.05,0.58208 0.14623,1.14763 0.21343,1.25677 0.19637,0.31879 0.8911,0.22839 1.01647,-0.13229 0.0632,-0.1819 0.0249,-0.74744 -0.0853,-1.25677 -0.14583,-0.67435 -0.34101,-0.92604 -0.71778,-0.92604 z m -2.00298,0.13229 c -0.2768,0 -0.30244,0.66074 -0.0708,1.81901 0.21061,1.05303 0.462,1.08553 0.30851,0.0398 -0.0635,-0.43302 -0.26857,-1.10469 -0.14046,-1.14738 0.10371,-0.0346 0.84893,1.53869 0.85093,1.44139 0.004,-0.17438 -0.94818,-2.15281 -0.94818,-2.15281 z m 2.14509,0 c 0.14553,0 0.26459,0.47624 0.26459,1.05833 0,1.08143 -0.044,1.1911 -0.35296,0.88212 -0.27999,-0.28 -0.20435,-1.94045 0.0884,-1.94045 z m -3.63389,0.015 c -0.12555,-0.008 -0.30777,0.06 -0.53485,0.20412 -0.23208,0.14737 -0.28145,0.58523 -0.16278,1.45108 0.13333,0.97277 0.27665,1.24023 0.66353,1.24023 0.27127,0 0.49299,-0.12597 0.49299,-0.28008 0,-0.15412 -0.12011,-0.20636 -0.26665,-0.11576 -0.14655,0.0906 -0.34222,-0.0332 -0.43512,-0.27543 -0.0929,-0.2422 -0.0229,-0.53073 0.15607,-0.64131 0.24237,-0.14977 0.21862,-0.24246 -0.0935,-0.36225 -0.5317,-0.20402 -0.5475,-0.70642 -0.0222,-0.70642 0.21828,0 0.39687,-0.11906 0.39687,-0.26458 0,-0.1583 -0.0687,-0.24178 -0.1943,-0.2496 z m -1.79989,0.30334 c -0.0302,-2.6e-4 -0.0599,0.002 -0.0894,0.008 -0.4447,0.091 -0.56296,1.51091 -0.2036,2.44739 0.0939,0.24469 0.31944,0.39612 0.50126,0.33642 0.3928,-0.12898 0.61322,-1.52291 0.24081,-1.52291 -0.14161,0 -0.19495,0.23813 -0.11885,0.52917 0.0761,0.29104 0.0184,0.52917 -0.12816,0.52917 -0.26839,0 -0.58979,-1.76304 -0.36277,-1.99006 0.067,-0.067 0.28456,0.0129 0.48318,0.17776 0.28649,0.23775 0.32528,0.20702 0.18913,-0.14779 -0.0826,-0.21526 -0.30017,-0.36553 -0.5116,-0.36742 z m -1.68361,0.21343 c -0.17615,0.0262 -0.28943,0.47952 -0.28681,1.38648 0.003,0.9364 0.0824,1.2653 0.24443,1.00924 0.20338,-0.32137 0.30691,-0.3247 0.67386,-0.0202 0.3899,0.3236 0.41471,0.2823 0.24598,-0.41341 -0.32085,-1.32294 -0.65098,-1.9958 -0.87746,-1.96215 z m -1.41542,0.262 c -0.55023,-1.5e-4 -0.58855,0.10001 -0.50385,1.32291 0.0504,0.72769 0.20754,1.32292 0.34882,1.32292 0.1413,0 0.1856,-0.22383 0.0987,-0.49764 -0.0997,-0.31419 -0.008,-0.5552 0.24701,-0.65319 0.22261,-0.0854 0.40463,-0.4569 0.40463,-0.82528 0,-0.51812 -0.13477,-0.66959 -0.59531,-0.66972 z m 0.0661,0.26458 c 0.14552,0 0.26458,0.23813 0.26458,0.52917 0,0.29104 -0.11906,0.52916 -0.26458,0.52916 -0.14552,0 -0.26458,-0.23812 -0.26458,-0.52916 0,-0.29104 0.11906,-0.52917 0.26458,-0.52917 z m 1.40921,0.0749 c 0.0353,0.006 0.0901,0.1168 0.17829,0.32195 0.12506,0.29103 0.23578,0.61846 0.24598,0.7276 0.0102,0.10913 -0.10046,0.19844 -0.24598,0.19844 -0.14552,0 -0.25618,-0.32743 -0.24598,-0.72761 0.009,-0.36267 0.0223,-0.52816 0.0677,-0.52038 z m -6.85177,0.40049 c -0.0342,0.0185 -0.0586,0.17777 -0.062,0.45062 -0.005,0.43655 0.0495,0.64733 0.12196,0.46819 0.0725,-0.17913 0.0769,-0.53631 0.01,-0.79375 -0.0252,-0.0965 -0.0492,-0.13613 -0.0698,-0.12506 z m 24.49255,1.67587 c -0.11989,0 -0.23978,0.0181 -0.33073,0.0548 -0.1819,0.0735 -0.0331,0.13332 0.33073,0.13332 0.36383,0 0.51263,-0.0599 0.33073,-0.13332 -0.0909,-0.0367 -0.21084,-0.0548 -0.33073,-0.0548 z m -1.62212,0.26148 c -0.19183,-7.9e-4 -0.39303,0.0143 -0.55759,0.046 v -5.3e-4 c -0.32912,0.0633 -0.12217,0.1174 0.45992,0.1204 0.58209,0.003 0.85138,-0.0485 0.59841,-0.11472 -0.12648,-0.0329 -0.30892,-0.0502 -0.50074,-0.0512 z m -22.58414,0.19275 c -0.0434,-0.0249 -0.0739,0.18748 -0.0739,0.56948 0,0.50932 0.0544,0.71768 0.12092,0.46302 0.0665,-0.25466 0.0665,-0.67138 0,-0.92604 -0.0166,-0.0637 -0.0326,-0.0981 -0.047,-0.10646 z m 20.46747,0.0718 c -0.19182,-8e-4 -0.39303,0.0143 -0.55759,0.046 v -5.3e-4 c -0.32911,0.0633 -0.12216,0.11741 0.45992,0.12041 0.5821,0.003 0.85138,-0.0485 0.59842,-0.11472 -0.12649,-0.033 -0.30893,-0.0502 -0.50075,-0.0512 z m -2.34662,0.26561 c -0.16784,0 -0.33569,0.0163 -0.46302,0.0496 -0.25466,0.0665 -0.0463,0.12092 0.46302,0.12092 0.50932,0 0.71768,-0.0543 0.46302,-0.12092 -0.12733,-0.0333 -0.29517,-0.0496 -0.46302,-0.0496 z m -1.8867,0.26355 c -0.19183,-7.9e-4 -0.39303,0.0143 -0.55759,0.046 v -5.3e-4 c -0.32912,0.0633 -0.12217,0.1174 0.45992,0.1204 0.58209,0.003 0.85138,-0.0485 0.59841,-0.11472 -0.12648,-0.0329 -0.30892,-0.0502 -0.50074,-0.0512 z m -2.21434,0.23306 c -0.8764,0 -0.92375,0.046 -0.88625,0.8599 0.0369,0.80034 0.0473,0.8095 0.14986,0.13229 0.0844,-0.5571 0.25618,-0.7276 0.73432,-0.7276 0.37226,0 0.67359,0.18701 0.74569,0.46302 0.0911,0.34844 0.12883,0.3157 0.15193,-0.13229 0.0263,-0.50981 -0.10251,-0.59532 -0.89555,-0.59532 z m -2.28358,0.29611 c -0.19182,-7.9e-4 -0.39303,0.0143 -0.55759,0.046 v -5.3e-4 c -0.32911,0.0633 -0.12216,0.11741 0.45992,0.12041 0.5821,0.003 0.85137,-0.0485 0.59841,-0.11472 -0.12648,-0.0329 -0.30892,-0.0502 -0.50074,-0.0512 z m 13.43948,0.23306 c -0.26243,0 -0.43104,1.09871 -0.67696,4.41265 -0.34984,4.71453 -0.50568,5.25267 -1.97094,6.8063 -1.06965,1.13416 -2.02572,1.27854 -2.02572,0.30593 0,-0.35521 -0.11906,-0.71935 -0.26458,-0.80926 -0.14552,-0.0899 -0.26458,-0.7331 -0.26458,-1.42937 0,-1.04365 -0.19125,-1.55071 -1.08831,-2.88664 -0.92451,-1.37684 -1.10892,-1.88357 -1.22834,-3.37137 -0.15556,-1.93791 -0.4435,-2.24239 -1.67741,-1.77664 -0.61476,0.23205 -0.76039,0.20577 -0.85628,-0.15503 -0.0636,-0.23913 -0.12935,0.004 -0.14625,0.54157 -0.0169,0.53711 0.10691,1.06148 0.27492,1.16531 0.19487,0.12044 0.23347,0.0722 0.10645,-0.13333 -0.27626,-0.44699 0.60075,-1.3472 1.31259,-1.3472 0.52516,0 0.59887,0.16715 0.72605,1.65364 0.0778,0.90951 0.22114,1.85059 0.31884,2.09083 0.16497,0.4057 0.0916,0.4054 -1.03146,0.002 -1.05104,-0.37795 -1.21429,-0.53848 -1.25109,-1.23042 l -0.0424,-0.79581 -0.10645,0.85989 c -0.0866,0.6979 -0.22498,0.8599 -0.73329,0.8599 -0.43912,0 -0.66064,-0.17792 -0.74104,-0.59532 -0.10119,-0.5253 -0.11858,-0.51237 -0.15038,0.11111 -0.0285,0.55811 -0.20329,0.74351 -0.83199,0.8816 -1.00196,0.22008 -1.4801,1.02671 -1.10122,1.85828 0.15105,0.33074 0.21902,0.88163 0.15193,1.2237 l -0.12196,0.62167 0.27078,-0.61495 c 0.18717,-0.42503 0.18317,-0.77877 -0.0129,-1.14515 -0.40183,-0.75083 -0.1273,-1.24736 0.93535,-1.69137 1.95974,-0.81883 4.51032,-0.29083 4.51032,0.93379 0,0.45904 -0.18829,0.69417 -0.66146,0.82579 l -0.66146,0.18397 0.67489,0.0264 c 0.85326,0.0334 1.30949,0.48438 1.30949,1.2945 0,0.43335 -0.18797,0.68359 -0.59532,0.7922 -0.5919,0.15781 -0.59147,0.15957 0.0662,0.31781 0.47854,0.11514 0.66146,0.33558 0.66146,0.79685 0,0.45142 -0.19314,0.69469 -0.66146,0.83354 -0.61606,0.18262 -0.60699,0.19299 0.13229,0.14469 0.61454,-0.0402 0.81352,-0.19346 0.88212,-0.67799 0.0487,-0.3442 -0.0308,-0.74499 -0.17673,-0.89091 -0.14589,-0.14591 -0.19914,-0.67259 -0.11834,-1.17047 0.10334,-0.63677 0.0259,-1.00046 -0.26097,-1.22576 -0.28196,-0.22148 -0.36428,-0.5916 -0.26768,-1.19941 l 0.13952,-0.87902 0.89349,1.25626 c 1.06328,1.49553 1.17911,2.91492 0.35449,4.33823 l -0.53639,0.92605 0.61856,-0.73433 c 0.34043,-0.40389 0.70181,-0.6521 0.80253,-0.55138 0.66297,0.66296 -0.5488,2.91755 -1.92649,3.58479 -0.80249,0.3887 -0.76478,0.3987 1.39061,0.3731 1.98767,-0.0237 2.31354,-0.10112 3.16932,-0.75395 0.52458,-0.40018 1.00945,-0.72761 1.07745,-0.72761 0.068,0 0.0829,0.4344 0.0336,0.96531 -0.34396,3.70095 1.92818,7.58356 5.48958,9.38135 1.63482,0.82525 1.94,1.44212 1.00304,2.02726 -0.33758,0.21083 -0.52916,0.61694 -0.52916,1.1219 0,1.13119 -0.82223,1.84212 -2.18281,1.88722 -1.12276,0.0372 -1.12235,0.0378 0.24959,0.20464 0.93008,0.11311 1.60448,0.37898 2.0867,0.82269 0.8027,0.73862 1.80986,2.77505 1.56683,3.16828 -0.34626,0.56026 -3.12328,1.12464 -4.87567,0.99064 -0.9568,-0.0732 -1.91117,-0.1773 -2.12081,-0.231 -0.20964,-0.0537 -0.42567,0.1054 -0.48007,0.35347 -0.0701,0.31955 0.15691,0.52847 0.77825,0.71624 0.48234,0.14573 1.89755,0.24032 3.14502,0.21032 2.11015,-0.0508 2.4327,-0.13773 4.63021,-1.2454 l 2.36213,-1.19063 -0.0687,-1.05833 c -0.11484,-1.7717 -0.82124,-4.2132 -1.66398,-5.75107 -0.47072,-0.85898 -0.2702,-0.99581 1.45883,-0.99581 1.36342,0 1.76098,0.0946 1.96008,0.46664 0.23839,0.44541 0.0387,2.32199 -0.30644,2.88045 -0.32114,0.51961 -0.68481,4.4449 -0.43925,4.74079 0.51389,0.61919 6.2911,2.53688 5.94228,1.97249 -0.0684,-0.11069 -0.58935,-0.27538 -1.15807,-0.36638 -1.35303,-0.21635 -4.61922,-1.61555 -4.76043,-2.03916 -0.078,-0.23396 0.0357,-0.26664 0.3886,-0.11162 2.59037,1.13782 4.86392,1.70374 6.7169,1.67173 l 1.98438,-0.0341 -2.38125,-0.17828 c -1.30969,-0.0982 -2.63704,-0.31601 -2.94969,-0.48421 -0.51816,-0.27874 -0.54414,-0.40292 -0.29094,-1.40044 0.15937,-0.62786 0.69449,-1.53238 1.25522,-2.12183 0.89331,-0.93909 1.09677,-1.02733 2.36728,-1.02733 1.21367,0 1.48767,0.10459 2.15749,0.82166 0.42196,0.45169 0.87559,1.19582 1.00822,1.65365 0.13264,0.45779 0.25199,0.61614 0.26509,0.35191 0.029,-0.58454 -0.39463,-1.44167 -1.09037,-2.20658 -0.49779,-0.54732 -0.49925,-0.5769 -0.0325,-0.72502 0.26747,-0.0849 0.65098,-0.4179 0.85214,-0.74001 0.32423,-0.51917 0.27075,-0.50561 -0.47077,0.11834 -0.63325,0.53289 -0.97576,0.65236 -1.41076,0.49144 -0.85751,-0.31721 -0.84505,-0.68311 0.0486,-1.43505 1.11855,-0.9412 1.01367,-1.16514 -0.12144,-0.25942 -0.50933,0.40638 -0.92604,0.94682 -0.92604,1.20148 -3e-5,0.76233 -1.52703,0.60586 -2.30787,-0.23668 l -0.64906,-0.70021 0.0894,0.632 c 0.0751,0.53123 -0.0821,0.69147 -0.98599,1.00562 -1.14134,0.39669 -2.36833,0.25139 -2.54351,-0.30127 -0.0581,-0.18316 -0.0277,-0.80956 0.0677,-1.39165 0.14807,-0.90321 0.20219,-0.97238 0.36949,-0.47181 0.42617,1.27524 2.29957,0.95364 2.05,-0.35191 -0.16081,-0.84121 0.36792,-0.65744 0.73639,0.2558 0.15454,0.38296 0.23468,0.43139 0.24598,0.14883 0.009,-0.23061 -0.34013,-0.73757 -0.7767,-1.12655 -1.00135,-0.8922 -0.99467,-1.11515 0.0506,-1.65571 2.55238,-1.31988 4.81531,-4.6205 5.15938,-7.52564 0.10324,-0.87176 0.2382,-1.2252 0.38137,-0.99943 0.17581,0.27731 0.2223,0.26756 0.22531,-0.0475 0.005,-0.49851 -1.41202,-3.51432 -2.1146,-4.50101 -0.66249,-0.93044 -0.66815,-1.31982 -0.0185,-1.31982 1.06191,0 3.48877,3.71802 4.23124,6.48229 0.40021,1.48994 0.39717,1.49628 -0.70485,1.40508 -0.86677,-0.0717 -1.07066,0.0292 -1.61128,0.7984 -0.38457,0.54718 -0.56571,1.09803 -0.47853,1.45521 0.0772,0.3161 -0.0311,0.80583 -0.24079,1.08831 -0.20974,0.28247 -0.37383,0.69919 -0.36484,0.92604 0.01,0.23159 0.13155,0.12616 0.27803,-0.24081 0.14345,-0.35946 0.57454,-1.07383 0.95808,-1.5875 0.57121,-0.76505 0.59288,-0.84283 0.11935,-0.42995 -0.55515,0.48413 -0.57825,0.48476 -0.57825,0.017 0,-1.63645 2.87878,-2.37629 3.94963,-1.01493 0.30162,0.38339 0.54829,0.56698 0.54829,0.40773 0,-0.15926 -0.27469,-0.56224 -0.61031,-0.89555 -0.3356,-0.33331 -0.87053,-1.44495 -1.18854,-2.47013 -0.31803,-1.02518 -0.97041,-2.51544 -1.45005,-3.31195 l -0.8723,-1.44797 0.19378,-3.03806 c 0.10636,-1.67081 0.25762,-3.72267 0.33642,-4.55941 0.0788,-0.83675 0.0427,-1.52135 -0.0801,-1.52135 -0.12277,0 -0.3084,1.57309 -0.41291,3.49539 -0.22019,4.05086 -0.38666,4.56418 -1.33739,4.13102 -1.27005,-0.57867 -1.91543,0.71057 -0.96581,1.92908 2.54659,3.26766 1.88505,7.70333 -1.62678,10.90837 -1.06261,0.96977 -3.09852,2.20745 -3.09852,1.88361 0,-0.0843 -0.14883,-0.0604 -0.33072,0.0532 -0.52269,0.32653 -1.0045,0.41713 -2.88717,0.5426 -3.40003,0.22659 -7.60265,-1.94576 -9.21132,-4.76095 -1.3244,-2.3177 -1.42699,-3.43015 -0.95033,-10.311 0.23302,-3.36391 0.46416,-6.15684 0.51366,-6.20634 0.2045,-0.2045 0.95963,0.2709 0.95963,0.6041 0,0.19818 0.14883,0.30296 0.33073,0.23306 0.24297,-0.0934 0.3075,0.20734 0.2434,1.13326 -0.0766,1.10668 0.004,1.34058 0.66146,1.92133 l 0.74879,0.66095 -0.59531,-0.67852 c -0.62627,-0.7138 -0.769,-1.80969 -0.34004,-2.61121 0.54412,-1.01668 3.71347,-0.52626 3.71347,0.57465 0,0.15939 0.0795,0.21037 0.17674,0.11317 0.0972,-0.0972 0.0139,-0.48165 -0.18552,-0.85421 -0.28658,-0.53548 -0.29637,-0.78393 -0.045,-1.1865 0.38435,-0.61549 0.41961,-2.00996 0.0563,-2.23448 -0.14404,-0.089 -0.72649,0.32634 -1.2945,0.92345 -1.02178,1.07414 -1.05054,1.08484 -2.71456,1.00614 l -1.68207,-0.0796 0.0641,-1.25677 c 0.0458,-0.89724 -0.0358,-1.25677 -0.28525,-1.25677 z m -15.78611,0.0326 c -0.16784,0 -0.33569,0.0164 -0.46302,0.0496 -0.25466,0.0665 -0.0463,0.12093 0.46302,0.12093 0.50932,0 0.71768,-0.0543 0.46302,-0.12093 -0.12733,-0.0333 -0.29517,-0.0496 -0.46302,-0.0496 z m -2.11666,0.26459 c -0.16785,0 -0.33569,0.0163 -0.46302,0.0496 -0.25467,0.0665 -0.0463,0.12092 0.46302,0.12092 0.50932,0 0.71768,-0.0543 0.46302,-0.12092 -0.12734,-0.0333 -0.29518,-0.0496 -0.46302,-0.0496 z m -2.15129,0.26355 c -0.19183,-7.9e-4 -0.39303,0.0143 -0.55759,0.046 v -5.3e-4 c -0.32912,0.0633 -0.12217,0.11741 0.45992,0.12041 0.58209,0.003 0.85138,-0.0485 0.59841,-0.11472 -0.12648,-0.0329 -0.30892,-0.0502 -0.50074,-0.0512 z m -4.9072,0.0263 c -0.0515,-0.005 -0.0795,0.087 -0.0811,0.27285 -0.003,0.35409 0.19811,0.45445 0.85576,0.42685 0.72807,-0.0305 0.75849,-0.0546 0.19844,-0.15865 -0.3638,-0.0676 -0.74885,-0.25961 -0.85576,-0.42684 -0.0468,-0.0733 -0.0864,-0.11128 -0.11731,-0.11421 z m 34.88107,0.0708 c -0.0258,0.001 -0.0469,0.007 -0.0636,0.0176 -0.39443,0.24377 -0.2761,1.61284 0.17157,1.98437 0.30388,0.45119 0.26421,2.71792 0.78962,0.80099 3.02994,-0.68613 4.3958,2.533 2.29908,3.79821 -0.39829,0.21613 -0.6022,0.3976 -0.45268,0.4036 3.14821,-1.58062 0.5625,-3.41792 2.69802,-4.4602 0.65732,-0.31934 1.11278,-0.66334 1.01183,-0.76429 -0.10095,-0.1014 -0.93737,-0.14455 -1.8588,-0.0971 -1.75064,0.09 -2.36708,-0.11021 -3.66645,-1.19114 -0.36093,-0.30026 -0.74829,-0.50156 -0.92862,-0.49196 z m -32.09054,0.16743 c -0.19182,-7.9e-4 -0.39303,0.0143 -0.55759,0.046 v -5.3e-4 c -0.32911,0.0633 -0.12216,0.11741 0.45992,0.12041 0.5821,0.003 0.85137,-0.0485 0.59841,-0.11472 -0.12648,-0.0329 -0.30892,-0.0502 -0.50074,-0.0512 z m 32.19079,0.27647 c 0.16134,-0.006 0.50324,0.22882 1.22318,0.75034 0.92007,0.6665 1.35471,0.797 2.70991,0.8139 l 1.61386,0.0202 -0.92604,0.35656 c -0.50932,0.19614 -1.2889,0.36562 -1.73271,0.37673 -0.9968,0.0249 -3.02979,-1.24378 -3.02979,-1.89085 0,-0.27283 0.0161,-0.4225 0.14159,-0.42684 z m -4.27313,0.21962 c 0.0217,0.004 0.0378,0.0134 0.0481,0.03 0.24792,0.40114 -0.13501,1.22425 -0.7555,1.62419 -0.83337,0.53714 -1.51592,0.65811 -2.51665,0.44596 -1.35377,-0.287 -1.32651,-0.51108 0.062,-0.51108 1.08164,0 1.38921,-0.12829 2.16111,-0.9002 0.43316,-0.43314 0.84899,-0.71409 1.00097,-0.68885 z m -17.4506,0.47698 c -0.0343,0.0185 -0.0589,0.17776 -0.062,0.45062 h -5.3e-4 c -0.005,0.43655 0.0495,0.64731 0.12196,0.46818 0.0727,-0.17913 0.0774,-0.53632 0.0104,-0.79375 -0.0252,-0.0965 -0.0492,-0.13613 -0.0698,-0.12505 z m -1.65933,7.34322 c -0.0269,-0.002 -0.0419,0.0138 -0.0419,0.0506 0,0.14732 0.18151,0.41866 0.40308,0.60255 0.24474,0.20347 0.33775,0.53881 0.23667,0.85731 -0.14788,0.46592 -0.0445,0.82396 0.67025,2.31252 0.1048,0.21828 0.5627,0.635 1.0175,0.92604 0.45482,0.29104 0.83116,0.73753 0.83716,0.99219 0.006,0.25466 0.0786,0.46302 0.16175,0.46302 0.0832,0 0.12934,-0.26789 0.10284,-0.59531 -0.0878,-1.08426 0.004,-1.25677 0.67179,-1.25677 0.48507,0 0.66146,0.14111 0.66146,0.52916 0,0.57992 0.38844,0.70648 0.68678,0.22376 0.11697,-0.18928 0.0725,-0.23376 -0.11679,-0.11679 -0.68495,0.42333 -0.24981,-0.5777 0.48834,-1.12344 0.43657,-0.32277 0.79375,-0.7197 0.79375,-0.88212 0,-0.16241 -0.2922,0.0196 -0.64905,0.40463 -0.5839,0.62999 -0.83621,0.70021 -2.52181,0.70021 -1.55106,0 -1.89852,-0.0796 -2.02107,-0.46302 -0.0814,-0.25466 -0.27157,-0.72265 -0.42323,-1.04024 -0.15169,-0.31761 -0.2005,-0.77494 -0.108,-1.01596 0.0977,-0.25461 -0.0539,-0.72017 -0.36174,-1.11156 -0.21857,-0.27785 -0.4071,-0.45025 -0.48782,-0.45682 z m 12.12897,0.83819 v 1.11311 c 0,1.47001 -0.31123,1.98643 -1.68155,2.78949 -1.05941,0.62085 -2.2261,0.81311 -3.00964,0.4961 -0.58486,-0.23662 1.01711,-1.94303 1.82418,-1.94304 0.5072,0 1.00849,-0.34459 1.78594,-1.22783 z m -9.40821,3.514 c 0.22688,0 0.41238,0.11906 0.41238,0.26458 0,0.14552 -0.11214,0.26458 -0.24908,0.26458 -0.13693,0 -0.32248,-0.11906 -0.41238,-0.26458 -0.0899,-0.14552 0.0222,-0.26458 0.24908,-0.26458 z m 2.39986,2.07635 c -0.0434,-0.0249 -0.0739,0.18749 -0.0739,0.56948 0,0.50932 0.0544,0.71768 0.12092,0.46302 0.0666,-0.25466 0.0666,-0.67138 0,-0.92604 -0.0166,-0.0637 -0.0326,-0.0981 -0.047,-0.10646 z m 28.56311,0.16279 c -0.0479,-0.0178 -0.0816,0.13384 -0.0816,0.40669 0,0.36383 0.0599,0.51263 0.13332,0.33073 0.0734,-0.1819 0.0734,-0.47956 0,-0.66146 -0.0183,-0.0455 -0.0357,-0.07 -0.0517,-0.076 z m -30.17232,0.35295 c -0.0343,0.0185 -0.0589,0.17776 -0.062,0.45062 h -5.2e-4 c -0.005,0.43656 0.0495,0.64731 0.12195,0.46818 0.0727,-0.17913 0.0774,-0.53632 0.0104,-0.79375 -0.0252,-0.0965 -0.0492,-0.13613 -0.0698,-0.12505 z m 1.86191,1.23455 c -0.0479,-0.0178 -0.0817,0.13384 -0.0817,0.40669 0,0.36383 0.0599,0.51263 0.13332,0.33073 0.0734,-0.1819 0.0734,-0.47956 0,-0.66146 -0.0183,-0.0455 -0.0357,-0.07 -0.0517,-0.076 z m -1.30638,0.84026 c -0.2372,-0.0106 -0.40463,0.0383 -0.40463,0.13229 0,0.12534 0.29765,0.22789 0.66146,0.22789 0.3638,0 0.66146,-0.0455 0.66146,-0.10129 0,-0.0558 -0.29766,-0.15839 -0.66146,-0.22789 -0.0909,-0.0174 -0.17777,-0.0275 -0.25683,-0.031 z m 33.3716,0.95394 c -0.0375,0.0113 -0.0896,0.0751 -0.16071,0.18759 -0.13375,0.21133 -0.18436,0.47922 -0.11266,0.59531 0.22947,0.37132 0.36367,0.22752 0.35967,-0.38447 -0.003,-0.2905 -0.0238,-0.41726 -0.0863,-0.39843 z m 0.64542,2.32286 c -0.0198,0.002 0.014,0.11654 0.0863,0.34623 0.0838,0.26656 0.16603,0.68328 0.18293,0.92604 0.0276,0.39767 0.0428,0.3962 0.15039,-0.0134 0.0657,-0.25009 -0.0167,-0.66681 -0.18293,-0.92604 -0.1433,-0.22339 -0.21696,-0.33455 -0.2367,-0.3328 z m -5.93709,0.66507 c -0.0859,0.0133 -0.22527,0.1432 -0.38499,0.39895 -0.20439,0.32731 -0.2217,0.51728 -0.0476,0.51728 0.15132,0 0.34531,-0.18369 0.43151,-0.40825 0.13393,-0.34906 0.11152,-0.52503 0,-0.50798 z m -1.25471,0.94878 c -0.0919,-0.004 -0.19648,0.013 -0.29197,0.0512 -0.21107,0.0845 -0.14854,0.1475 0.15968,0.1602 0.27887,0.0115 0.43516,-0.0511 0.34727,-0.13901 -0.044,-0.0439 -0.12306,-0.0686 -0.21498,-0.0724 z m 2.3213,0.33021 c -0.0397,0.0215 -0.0997,0.13816 -0.18653,0.35399 -0.13475,0.33475 -0.60831,0.69207 -1.10794,0.83612 -0.55918,0.16122 -0.67975,0.26014 -0.33592,0.27544 0.72596,0.0323 1.71662,-0.69666 1.69603,-1.24799 -0.006,-0.16543 -0.0259,-0.23908 -0.0656,-0.21756 z m 5.48754,0.37724 c -0.0343,0.0185 -0.0589,0.17777 -0.062,0.45062 v 0 c -0.005,0.43656 0.0495,0.64732 0.12197,0.46819 0.0727,-0.17913 0.0774,-0.53632 0.0103,-0.79375 -0.0251,-0.0965 -0.0492,-0.13613 -0.0697,-0.12506 z m -12.28608,0.48008 c 0.27639,-0.0112 0.34935,0.22231 0.5426,0.93999 0.15853,0.58863 0.22414,1.23668 0.14624,1.43971 -0.27644,0.72039 -0.95134,0.34619 -1.57664,-0.87437 -0.55638,-1.08603 -0.56817,-1.039 0.35449,-1.36064 0.24014,-0.0837 0.40767,-0.13961 0.53331,-0.14469 z m -6.83008,0.14573 c 0.10165,0.005 0.2364,0.0373 0.41496,0.0822 0.94522,0.23724 0.92318,0.1974 0.71572,1.30328 -0.14605,0.77848 -0.29457,0.95291 -0.8108,0.95291 -0.57482,0 -0.632,-0.10998 -0.632,-1.21905 0,-0.89835 0.007,-1.13365 0.31212,-1.1193 z m 13.82449,0.16794 c -0.0343,0.0185 -0.0589,0.17777 -0.062,0.45062 v 0 c -0.005,0.43656 0.0495,0.64732 0.12197,0.46819 0.0727,-0.17913 0.0774,-0.53632 0.0103,-0.79375 -0.0251,-0.0965 -0.0492,-0.13613 -0.0697,-0.12506 z m 4.98367,0.64027 c -0.0259,0.0142 -0.0428,0.0883 -0.0496,0.22169 -0.0284,0.55894 -1.64386,2.08832 -2.34921,2.22416 -0.31398,0.0605 -0.7815,0.23834 -1.03921,0.39481 -0.67677,0.41087 0.89342,0.0517 1.82573,-0.41755 0.84818,-0.42696 1.90085,-1.82885 1.71617,-2.28565 -0.0429,-0.10609 -0.078,-0.15168 -0.10387,-0.13746 z m -19.62309,0.52969 c 0.12353,0.007 0.2342,0.16962 0.28422,0.52245 0.0716,0.50491 0.24655,0.6103 1.01234,0.6103 0.7188,0 0.90946,-0.099 0.85266,-0.44287 -0.15582,-0.94365 0.42202,-0.68428 0.67231,0.30179 0.22073,0.86961 0.18955,1.10982 -0.1881,1.45159 -0.54065,0.48926 -2.67633,0.5519 -3.13625,0.092 -0.21241,-0.21241 -0.31729,-0.2219 -0.31729,-0.0284 0,0.71343 2.71361,0.85125 3.66334,0.18604 0.46651,-0.3267 0.59221,-0.34197 0.5457,-0.0661 -0.0332,0.19706 0.0881,0.71531 0.26976,1.15187 0.21272,0.51125 0.24925,1.02842 0.10283,1.45314 -0.12511,0.3629 -0.71406,0.92803 -1.31,1.25677 l -1.08313,0.59738 -0.46251,-1.21181 c -0.25453,-0.66646 -0.86624,-1.61503 -1.35909,-2.10788 -0.98174,-0.98173 -1.09278,-1.31098 -0.51625,-1.53221 0.21192,-0.0813 0.41673,-0.58208 0.46302,-1.13223 0.0582,-0.69189 0.30054,-1.11301 0.50644,-1.10174 z m 10.53682,2.43758 c 0.0132,10e-4 0.0202,0.007 0.0202,0.0155 0,0.0718 -0.41184,0.66969 -0.91519,1.32912 -0.50336,0.65942 -0.99311,1.61423 -1.0883,2.12183 -0.0952,0.50761 -0.24899,0.96863 -0.34158,1.02423 -0.0927,0.0556 -0.70425,-0.0974 -1.3591,-0.34003 -1.32745,-0.49192 -1.493,-0.88595 -1.19786,-2.85409 0.16774,-1.11858 0.18964,-1.14081 0.74414,-0.75241 0.78585,0.55043 1.99325,0.50091 3.16984,-0.12971 0.4756,-0.2549 0.87534,-0.42418 0.9679,-0.41444 z m -14.95619,0.67954 c -0.73807,0 -1.9719,1.97982 -1.9265,3.09128 0.0278,0.67958 0.0466,0.66387 0.21549,-0.18086 0.24254,-1.21295 0.68121,-1.9949 1.4025,-2.50011 0.32235,-0.22574 0.46105,-0.41031 0.30851,-0.41031 z m 8.48888,2.78174 c 0.10642,-0.0157 0.13746,0.0631 0.13746,0.22996 0,0.24135 -0.91678,0.85675 -2.29391,1.53944 -2.11333,1.04765 -2.47308,1.14169 -4.56407,1.18959 -2.40194,0.055 -3.48832,-0.13432 -3.6561,-0.63768 -0.0763,-0.22888 0.1536,-0.23634 0.9064,-0.0284 2.18548,0.60357 6.61896,-0.37265 8.88008,-1.95543 0.30194,-0.21136 0.48373,-0.32176 0.59014,-0.33745 z m 11.929,0.56534 c -0.0314,-0.0111 -0.0593,0.0826 -0.0899,0.2744 -0.053,0.33248 -0.39481,0.69701 -0.80356,0.8568 -0.66747,0.26095 -0.65442,0.26932 0.21447,0.13642 0.86019,-0.13157 0.89064,-0.11331 0.42735,0.25684 -0.27429,0.21917 -0.98869,0.4619 -1.5875,0.5395 -0.5988,0.0776 -1.446,0.19281 -1.88256,0.25631 v 5.3e-4 c -0.43656,0.0634 0.0101,0.0776 0.99219,0.032 2.32492,-0.10785 3.07705,-0.57187 2.87784,-1.7756 -0.0622,-0.3757 -0.10797,-0.56298 -0.14829,-0.57722 z"
         sodipodi:nodetypes="ssssssssssssssssssssssssssssscccsssscccsssscccssssssssscccsssssssssssssssccccsssssscscssssscssscsssssssssssssssssssssssssssssssssssssssssccssccssccccsssssscssssssscssssssssssssssssssssssscsssssscsssscsscssssssssssssssssssssssssssssssssssssssssssssssssssssssssssssssssssssssscssscccsssssscssccscssscscsscccssssssscssscsccssssssssssssssssssssccsssscscssssscsssssssssssccccccssssscsssssssssssssccsssssscsccccsssssscsssssssscccssssssssssssssssssscsssssssscccsssssssssssssssccsssssssssccsssssssssssssccccsssssssssssssssscsccssssccccccccssssccssssscscsssssssssssssssscsssssscssssccssssssscssssscsscccssssssssssssssscccsscssssscsssccssssssscscscsscsccssssssscsssscsscsccsssssssssssssscssssccssssssssssssssssssssssssssssssssssscccssssssscsssssssssscssssssssscccsss" />
    </g>
    <path
       style="fill:#534f4f;fill-opacity:1;stroke:none;stroke-width:0.3;stroke-linecap:round;stroke-linejoin:round;paint-order:stroke markers fill"
       id="path1051"
       d="m 170.8439,157.22102 c -0.0144,0.0714 -0.0343,0.14299 -0.0599,0.21133 -0.0222,0.0726 -0.067,0.13446 -0.10251,0.20069 -0.0176,0.0299 -0.0388,0.0577 -0.0569,0.0872 -0.0185,0.0302 -0.0326,0.0614 -0.0531,0.0905 -0.0235,0.0467 -0.0442,0.0956 -0.0743,0.13863 -0.0147,0.021 -0.0315,0.0403 -0.0471,0.0606 -0.06,0.10034 0.0181,-0.0271 -0.043,0.0631 -0.007,0.0102 -0.0117,0.0217 -0.0186,0.0319 -0.0182,0.0269 -0.0419,0.0509 -0.0617,0.0766 -0.006,0.0116 -0.0105,0.0236 -0.0169,0.0348 -0.006,0.0104 -0.0139,0.0195 -0.0202,0.0298 -0.0173,0.0283 -0.0226,0.0433 -0.0387,0.0729 -0.0202,0.0371 -0.0285,0.0489 -0.0512,0.0849 -0.0458,0.0748 -0.095,0.14741 -0.14332,0.22063 -0.037,0.0489 -0.0732,0.0987 -0.1135,0.14501 -0.005,0.009 -0.009,0.0194 -0.016,0.0279 -0.006,0.007 -0.0138,0.0125 -0.0202,0.0193 -0.0376,0.0402 -5.2e-4,0.004 -0.0368,0.0477 -0.006,0.008 -0.014,0.0143 -0.021,0.0215 -0.006,0.008 -0.0124,0.0158 -0.0186,0.0237 -0.0441,0.0519 0.005,-0.009 -0.0373,0.0524 -0.006,0.009 -0.014,0.0158 -0.0199,0.0246 -0.0183,0.0273 -0.0325,0.0592 -0.0469,0.0887 -0.0323,0.0481 -0.0387,0.10579 -0.0527,0.16043 -0.01,0.0592 -0.0129,0.11974 -0.009,0.1795 0.001,0.0553 0.014,0.10691 0.0386,0.15622 0.0326,0.0513 0.0668,0.10151 0.10268,0.15053 0.0568,0.0776 0.10552,0.16008 0.15461,0.24251 0.0411,0.077 0.0886,0.15011 0.13642,0.22313 0.048,0.0757 0.1021,0.14724 0.1545,0.21991 0.0437,0.0543 0.0899,0.10653 0.1312,0.16271 0.036,0.0428 0.0691,0.0879 0.10357,0.13184 0.0432,0.0528 0.10028,0.0892 0.15831,0.12354 0.0639,0.0373 0.13357,0.0601 0.204,0.081 0.0773,0.0258 0.15668,0.0371 0.23766,0.0416 0.13057,0.005 0.26101,-0.001 0.39109,-0.0121 0.0942,-0.007 0.18678,-0.025 0.27947,-0.042 0.12713,-0.0293 0.25483,-0.0538 0.38389,-0.0727 0.11788,-0.0179 0.23637,-0.0307 0.3547,-0.0451 0.047,-0.007 0.0246,-0.004 0.0674,-0.01 0,0 0.7831,-0.60145 0.7831,-0.60145 v 0 c -0.0405,0.017 -0.0184,0.01 -0.0667,0.0208 -0.11884,0.0271 -0.24068,0.0337 -0.36062,0.0545 -0.12725,0.0153 -0.25395,0.0331 -0.37895,0.0619 -0.093,0.0188 -0.18614,0.037 -0.27985,0.052 -0.12523,0.0172 -0.25208,0.0282 -0.37855,0.0225 -0.0742,-0.003 -0.14979,-0.005 -0.22075,-0.029 -0.0657,-0.0146 -0.13079,-0.0322 -0.19163,-0.0615 -0.0507,-0.0236 -0.0975,-0.0523 -0.13375,-0.0956 -0.0376,-0.0392 -0.0672,-0.085 -0.1038,-0.12511 -0.043,-0.0546 -0.0871,-0.10853 -0.13317,-0.16057 -0.0536,-0.0687 -0.10825,-0.13716 -0.15395,-0.21147 -0.0456,-0.0738 -0.0919,-0.14705 -0.13578,-0.22183 -0.0524,-0.0822 -0.10155,-0.16656 -0.15347,-0.24913 -0.0303,-0.0469 -0.0625,-0.0927 -0.0891,-0.14184 -0.018,-0.0368 -0.0222,-0.0759 -0.0221,-0.11672 0.001,-0.0528 0.007,-0.10552 0.0229,-0.1562 0.012,-0.0488 0.0339,-0.0927 0.06,-0.13561 0.0333,-0.053 0.0711,-0.10255 0.11244,-0.1495 0.0393,-0.0455 0.0751,-0.0938 0.11196,-0.14097 0.0372,-0.0498 0.0749,-0.0992 0.10689,-0.15263 0.0473,-0.0728 0.0909,-0.14783 0.13702,-0.22132 0.0432,-0.0733 0.0849,-0.14834 0.13744,-0.21527 0.043,-0.0558 0.0782,-0.11703 0.11988,-0.17385 0.0445,-0.0665 0.0777,-0.13935 0.12119,-0.20647 0.0335,-0.0619 0.0745,-0.11935 0.10655,-0.18215 0.0382,-0.0692 0.0724,-0.13992 0.0944,-0.21622 0.0216,-0.0733 0.0412,-0.14706 0.0619,-0.22055 0,0 -0.89286,0.42772 -0.89286,0.42772 z" />
    <path
       style="fill:#534f4f;fill-opacity:1;stroke:none;stroke-width:0.3;stroke-linecap:round;stroke-linejoin:round;paint-order:stroke markers fill"
       id="path1053"
       d="m 168.833,163.72982 c 0.10184,-0.0608 0.2105,-0.10843 0.31941,-0.15486 0.0819,-0.038 0.16912,-0.0616 0.2538,-0.0921 0.0824,-0.0325 0.16456,-0.0651 0.24834,-0.0939 0.0943,-0.0317 0.19129,-0.0533 0.28895,-0.0717 0.0905,-0.0158 0.18062,-0.0337 0.27106,-0.0498 0.0687,-0.013 0.13839,-0.0184 0.20818,-0.0213 0.0848,-0.003 0.16943,-0.002 0.25407,0.004 0.0927,0.005 0.18525,0.0107 0.27778,0.0181 0.10333,0.006 0.20651,0.0149 0.30938,0.0266 0.0946,0.0103 0.1881,0.0284 0.28199,0.0436 0.0881,0.011 0.17547,0.0264 0.26309,0.0406 0.11266,0.0166 0.22579,0.0293 0.33825,0.0471 0.11816,0.0155 0.23649,0.0298 0.35479,0.0442 0.12308,0.0139 0.24497,0.0361 0.36751,0.054 0.11569,0.0156 0.2276,0.0499 0.33934,0.0825 0.0931,0.0288 0.18512,0.0608 0.27795,0.0904 0.094,0.0278 0.18513,0.0633 0.27682,0.0976 0.0922,0.0358 0.185,0.0698 0.2777,0.10425 0.082,0.026 0.16312,0.0542 0.24383,0.0838 0.10529,0.0356 0.20696,0.0801 0.30893,0.12405 0.10883,0.0509 0.2166,0.10404 0.32601,0.15365 0.11932,0.0562 0.2396,0.11034 0.35668,0.17108 0.10377,0.0554 0.20739,0.11092 0.30867,0.17075 0.0991,0.0618 0.19518,0.12821 0.29131,0.19447 0.10603,0.0737 0.20895,0.1515 0.30974,0.23215 0.0838,0.0641 0.16328,0.13355 0.24657,0.19825 0.0671,0.0568 0.12965,0.11866 0.19267,0.17984 0.0834,0.0845 0.17312,0.1624 0.26296,0.2399 0.0828,0.0708 0.16313,0.14456 0.24174,0.22001 0.045,0.0452 0.0939,0.0861 0.13744,0.13277 0.0445,0.0462 0.0876,0.0936 0.13115,0.14068 0.0328,0.0322 0.0644,0.0658 0.0948,0.10037 0.0208,0.0262 0.0433,0.0509 0.0642,0.077 0,0 0.85167,-0.50787 0.85167,-0.50787 v 0 c -0.0213,-0.0276 -0.0451,-0.0532 -0.0665,-0.0808 -0.0314,-0.0372 -0.0669,-0.0714 -0.1018,-0.10499 -0.0229,-0.0207 -0.042,-0.0443 -0.0632,-0.0668 -0.0916,-0.0977 0.0435,0.0462 -0.0443,-0.0442 -0.008,-0.008 -0.0153,-0.017 -0.023,-0.0256 -0.0449,-0.0488 -0.091,-0.0961 -0.14346,-0.13692 -0.0818,-0.0759 -0.17162,-0.14256 -0.25629,-0.2152 -0.0868,-0.0773 -0.16721,-0.16148 -0.2503,-0.24271 -0.0661,-0.0623 -0.1284,-0.12869 -0.19661,-0.18881 -0.0832,-0.0657 -0.17212,-0.12427 -0.25246,-0.19372 -0.1028,-0.0812 -0.20832,-0.15873 -0.31374,-0.23648 -0.0966,-0.0691 -0.19242,-0.13954 -0.29454,-0.20051 -0.0515,-0.0317 -0.10261,-0.0656 -0.1555,-0.0949 -0.0514,-0.0285 -0.10648,-0.0506 -0.1576,-0.0798 -0.11798,-0.0625 -0.2386,-0.12003 -0.36032,-0.1749 -0.10851,-0.0503 -0.21375,-0.10706 -0.32274,-0.15638 -0.10091,-0.0478 -0.205,-0.0889 -0.3076,-0.13295 -0.0813,-0.0307 -0.1623,-0.0624 -0.246,-0.0861 -0.0942,-0.0285 -0.18517,-0.0672 -0.27866,-0.0979 -0.0913,-0.0376 -0.18257,-0.0755 -0.2767,-0.10542 -0.0945,-0.0302 -0.18968,-0.0579 -0.28374,-0.0894 -0.11492,-0.0335 -0.22979,-0.0676 -0.34641,-0.0946 -0.12368,-0.0171 -0.24805,-0.0291 -0.37023,-0.0561 -0.11738,-0.0109 -0.23408,-0.0275 -0.35113,-0.0413 -0.0718,-0.0108 -0.0356,-0.005 -0.10861,-0.0175 -0.076,-0.0114 -0.15302,-0.0146 -0.22839,-0.0302 -0.0876,-0.0133 -0.17385,-0.0358 -0.26235,-0.0429 -0.0952,-0.0115 -0.18878,-0.0327 -0.28408,-0.0434 -0.10354,-0.0153 -0.2079,-0.0215 -0.31188,-0.0328 -0.0922,-0.005 -0.18379,-0.0155 -0.27604,-0.0189 -0.0861,-0.006 -0.17194,-0.0139 -0.2584,-0.0105 -0.0724,-5.3e-4 -0.14518,-0.002 -0.21688,0.009 -0.0929,0.0147 -0.18459,0.0351 -0.27715,0.0518 -0.0979,0.0188 -0.19775,0.0306 -0.29303,0.061 -0.0846,0.0234 -0.16823,0.0517 -0.24888,0.0864 -0.0234,0.009 -0.0464,0.0198 -0.07,0.0286 -0.0642,0.0239 -0.13146,0.0395 -0.19449,0.0669 -0.10481,0.0447 -0.21115,0.0865 -0.31301,0.13768 0,0 -0.7708,0.62109 -0.7708,0.62109 z" />
  </g>
</svg>
