<?xml version="1.0" encoding="UTF-8" standalone="no"?>
<!-- Created with Inkscape (http://www.inkscape.org/) -->

<svg
   width="73.681023mm"
   height="67.508354mm"
   viewBox="0 0 73.681023 67.508354"
   version="1.1"
   id="svg5"
   inkscape:version="1.1.1 (3bf5ae0d25, 2021-09-20)"
   sodipodi:docname="logo.svg"
   inkscape:export-filename="C:\Users\alca0\Desktop\DEV\DJANGO\drugstore\setup\static\images\logo.png"
   inkscape:export-xdpi="96"
   inkscape:export-ydpi="96"
   xmlns:inkscape="http://www.inkscape.org/namespaces/inkscape"
   xmlns:sodipodi="http://sodipodi.sourceforge.net/DTD/sodipodi-0.dtd"
   xmlns="http://www.w3.org/2000/svg"
   xmlns:svg="http://www.w3.org/2000/svg">
  <sodipodi:namedview
     id="namedview7"
     pagecolor="#505050"
     bordercolor="#eeeeee"
     borderopacity="1"
     inkscape:pageshadow="0"
     inkscape:pageopacity="0"
     inkscape:pagecheckerboard="0"
     inkscape:document-units="mm"
     showgrid="false"
     inkscape:zoom="2.1719924"
     inkscape:cx="180.24925"
     inkscape:cy="109.34661"
     inkscape:window-width="3200"
     inkscape:window-height="1321"
     inkscape:window-x="2391"
     inkscape:window-y="-9"
     inkscape:window-maximized="1"
     inkscape:current-layer="layer1" />
  <defs
     id="defs2" />
  <g
     inkscape:label="Layer 1"
     inkscape:groupmode="layer"
     id="layer1"
     transform="translate(-74.569235,-135.2932)">
    <g
       id="g1044"
       transform="translate(0.73155203,75.721789)">
      <path
         style="fill:#4d9cdd;fill-opacity:1;stroke-width:0.264583"
         d="m 102.48812,126.81823 c -4.391528,-0.73772 -7.63972,-1.86964 -11.664574,-4.0648 -8.77583,-4.78637 -15.17319,-14.00826 -16.669866,-24.029856 -0.518197,-3.469798 -0.38294,-9.245004 0.287586,-12.279322 2.289433,-10.360335 8.732372,-18.717108 18.038947,-23.397302 2.725573,-1.370666 5.409416,-2.303904 8.552697,-2.973983 3.13703,-0.668747 10.09214,-0.668747 13.22917,0 10.50994,2.240489 18.93128,8.676346 23.66188,18.083169 2.5444,5.059546 3.45342,9.051899 3.45342,15.167282 0,3.210843 -0.12682,4.960514 -0.47943,6.614583 -1.91955,9.004399 -6.95795,16.526269 -14.49223,21.635549 -3.07786,2.08721 -7.8517,4.07533 -11.87906,4.94716 -2.72101,0.58903 -9.33079,0.75239 -12.03854,0.29752 z m 7.02885,-20.80412 c 0.45102,-0.24138 0.51177,-0.57325 0.51177,-2.79552 0,-3.547101 -0.002,-3.545172 3.06942,-3.545172 3.40232,0 3.54517,-0.09556 3.54517,-2.371662 0,-2.541352 -0.15304,-2.655421 -3.56247,-2.655421 -2.24616,0 -2.75943,-0.07429 -2.89152,-0.418516 -0.0883,-0.230182 -0.1606,-1.602348 -0.1606,-3.049256 0,-2.580476 -0.013,-2.635673 -0.67868,-2.888777 -0.87043,-0.330938 -2.5347,-0.330938 -3.40513,0 -0.66572,0.253104 -0.67868,0.308301 -0.67868,2.888777 0,1.446908 -0.0723,2.819074 -0.1606,3.049256 -0.13209,0.344226 -0.64536,0.418516 -2.89152,0.418516 -3.409433,0 -3.562468,0.114069 -3.562468,2.655421 0,2.276097 0.142852,2.371662 3.545168,2.371662 3.07074,0 3.06942,-0.0015 3.06942,3.541332 0,2.11877 0.0734,2.56053 0.46302,2.78747 0.60691,0.3535 3.13457,0.36143 3.7877,0.0119 z"
         id="path1052" />
      <path
         style="fill:#3282c4;fill-opacity:1;stroke-width:0.264583"
         d="m 73.926924,95.699442 c -0.208468,-2.664859 -0.120091,-4.393052 0.136943,-6.907356 0.03195,-0.312511 0.291188,-0.520432 0.561594,-0.756814 12.251037,-4.857477 23.264474,-9.477249 23.989421,-10.110311 0.48911,-0.427115 1.181471,-0.88766 1.538588,-1.023433 0.35711,-0.135772 3.74893,-0.246859 7.53739,-0.246859 7.56917,0 8.16607,0.103541 9.03023,1.566452 0.3452,0.584384 0.45139,1.392548 0.45139,3.435308 v 2.671156 h 1.99289 c 1.10579,0 2.3859,0.164218 2.87584,0.368926 1.79267,0.749029 1.74587,0.413421 1.74587,12.518062 v 10.917167 l -0.72761,0.80519 c -0.56808,0.62866 -1.06447,0.8591 -2.26411,1.0511 -0.91184,0.14594 -7.39097,2.56323 -15.93684,5.94586 -7.920172,3.13497 -15.238739,5.96462 -15.495782,5.96242 C 77.667733,113.93687 74.291366,103.71805 73.926924,95.699442 Z m 35.837226,10.330398 c 0.29788,-0.18769 0.42988,-0.96216 0.52917,-3.10481 l 0.13229,-2.85474 2.24896,-0.0663 c 3.87161,-0.114225 4.23333,-0.351422 4.23333,-2.775984 0,-2.36348 -0.28109,-2.581621 -3.32666,-2.581621 -1.34799,0 -2.63922,-0.07227 -2.86941,-0.1606 -0.34327,-0.131725 -0.41851,-0.639352 -0.41851,-2.823437 0,-3.387982 -0.1737,-3.630546 -2.59987,-3.630546 -2.52577,0 -2.69181,0.221112 -2.69181,3.584574 0,2.226006 -0.0746,2.737435 -0.41851,2.869409 -0.23019,0.08833 -1.50073,0.1606 -2.82344,0.1606 -3.082159,0 -3.372638,0.218392 -3.372638,2.53565 0,2.476463 0.34625,2.707272 4.233338,2.821955 l 2.24896,0.0663 0.13229,2.85474 c 0.0993,2.14265 0.23129,2.91712 0.52917,3.10481 0.21828,0.13753 1.17078,0.25006 2.11666,0.25006 0.94589,0 1.89839,-0.11253 2.11668,-0.25006 z"
         id="path1050"
         sodipodi:nodetypes="cscssssscssscssscccsccssssssssscccssc" />
      <path
         style="fill:#e72229;stroke-width:0.264583"
         d="m 92.545893,108.6896 -0.773397,-0.77339 V 97.159876 86.403546 l 0.773397,-0.773397 c 0.746156,-0.746156 0.861846,-0.773397 3.284524,-0.773397 h 2.511125 l 0.08891,-3.065011 0.08891,-3.06501 0.864071,-0.771448 0.864067,-0.771448 h 7.3894 7.38941 l 0.74236,0.637558 c 0.71843,0.617012 0.74662,0.73851 0.87465,3.770312 l 0.13229,3.132755 2.70585,0.132292 c 2.36401,0.115579 2.78182,0.208427 3.30729,0.734953 l 0.60144,0.602664 V 97.190134 108.1859 l -0.74235,0.63855 -0.74236,0.63855 h -14.2931 -14.293097 z m 17.185587,-2.60004 c 0.48946,-0.40826 0.56332,-0.79154 0.62462,-3.24114 l 0.0695,-2.77813 2.86649,-0.132289 c 3.42229,-0.157943 3.6158,-0.306623 3.6158,-2.778125 0,-2.471502 -0.19351,-2.620182 -3.6158,-2.778125 l -2.86649,-0.132291 -0.13229,-2.778125 c -0.0728,-1.527969 -0.22862,-2.926953 -0.34635,-3.108854 -0.14142,-0.218506 -0.92169,-0.330729 -2.29949,-0.330729 -1.37779,0 -2.15806,0.112223 -2.29948,0.330729 -0.11773,0.181901 -0.27359,1.580885 -0.34635,3.108854 l -0.13229,2.778125 -2.86649,0.132291 c -3.458418,0.15961 -3.615801,0.287081 -3.615801,2.928588 0,2.347886 0.159358,2.461763 3.677141,2.627662 l 2.80515,0.132289 0.0695,2.77813 c 0.0847,3.38638 0.31711,3.70416 2.7086,3.70416 1.06822,0 1.69614,-0.13951 2.08399,-0.46302 z m 3.94557,-23.218692 c 0.12355,-2.996138 0.30436,-2.908908 -6.02956,-2.908908 -6.26328,0 -6.08541,-0.08139 -6.08541,2.784598 0,0.966579 0.0816,1.83901 0.18132,1.938736 0.0997,0.09973 2.8084,0.149335 6.01927,0.110243 l 5.83795,-0.07108 z"
         id="path1048" />
      <path
         style="fill:#243a5b;stroke-width:0.264583"
         d="m 98.486009,84.468345 c -0.08197,-0.213624 -0.108004,-1.592801 -0.05784,-3.064838 0.09001,-2.641479 0.102487,-2.686507 0.955274,-3.448051 l 0.864067,-0.771621 h 7.42451 7.42451 l 0.7734,0.773398 c 0.76574,0.765734 0.7734,0.803748 0.7734,3.836458 v 3.063061 h -1.45521 -1.45521 v -1.933805 c 0,-3.069453 0.22292,-2.960987 -6.08542,-2.960987 -6.30833,0 -6.08541,-0.108466 -6.08541,2.960987 v 1.933805 h -1.46351 c -1.042645,0 -1.506375,-0.111696 -1.612559,-0.388407 z"
         id="path1046" />
    </g>
    <path
       style="fill:#ffffff;fill-opacity:1;stroke:#ffffff;stroke-width:0.651114;stroke-linecap:round;stroke-linejoin:round;paint-order:stroke markers fill"
       d="m 404.66704,687.37019 c -1.6641,-0.30703 -2.64978,-0.89053 -3.16718,-1.87491 -0.43742,-0.83222 -0.56771,-2.57517 -0.73277,-9.80224 -0.2997,-13.12229 0.21751,-12.56786 -12.04286,-12.90941 -10.26514,-0.28597 -11.54637,-0.60674 -12.43296,-3.11273 -0.58344,-1.64911 -0.57989,-10.5227 0.005,-12.21482 0.50343,-1.45672 1.61827,-2.40005 3.40503,-2.88118 0.72558,-0.19537 5.21135,-0.46028 9.96837,-0.58867 9.00521,-0.24306 9.74555,-0.36572 10.47899,-1.73616 0.25043,-0.46795 0.44835,-4.0069 0.58116,-10.39181 0.22725,-10.92494 0.2412,-10.98412 2.81229,-11.92618 1.80513,-0.6614 7.82272,-0.89925 10.32014,-0.40791 2.75509,0.54203 3.70967,1.09313 4.09644,2.36496 0.17792,0.58504 0.41178,4.82962 0.5197,9.43239 0.10792,4.60277 0.28893,9.04504 0.40223,9.8717 0.3431,2.50319 0.48321,2.54053 10.49947,2.79822 9.35098,0.24057 11.23745,0.52162 12.50152,1.86249 1.19644,1.26915 1.52318,2.95605 1.52318,7.86403 0,4.99423 -0.31023,6.52415 -1.51509,7.47189 -1.45021,1.14074 -3.28026,1.39799 -11.50355,1.61709 -8.81567,0.23489 -9.74969,0.43544 -10.87137,2.33429 -0.75369,1.27589 -1.14179,5.54588 -1.18099,12.99349 -0.0474,9.00767 -0.25058,9.24555 -7.96938,9.33135 -2.68585,0.0299 -5.2496,-0.0133 -5.69725,-0.0959 z"
       id="path1226"
       transform="scale(0.26458333)" />
    <path
       style="fill:#969697;fill-opacity:1;stroke-width:0.0381417;stroke:#ffffff;stroke-opacity:1"
       d="m 140.08337,198.43206 -4.06669,-4.0673 -0.2624,0.15302 c -0.27837,0.16234 -1.07704,0.55208 -1.45013,0.70765 -0.31943,0.1332 -1.23486,0.427 -1.67719,0.53829 -0.54794,0.13785 -0.98242,0.20722 -1.69301,0.2703 -1.40376,0.12462 -2.80961,0.0248 -4.04303,-0.28725 -2.14486,-0.54253 -4.09354,-1.64991 -5.64498,-3.20789 -1.88242,-1.89036 -3.11176,-4.42306 -3.41358,-7.0327 -0.067,-0.57894 -0.077,-2.0779 -0.0181,-2.7083 0.15649,-1.67511 0.77427,-3.49741 1.6939,-4.99657 1.27815,-2.08361 3.15395,-3.73531 5.36121,-4.72071 0.64572,-0.28828 0.87161,-0.37003 1.58338,-0.57309 1.29983,-0.37081 1.95181,-0.46074 3.3369,-0.46029 1.42849,4.3e-4 2.21964,0.11537 3.54719,0.51519 1.48339,0.44675 3.02215,1.27402 4.13628,2.22375 1.89173,1.61259 3.07028,3.3693 3.82917,5.70765 0.43689,1.34619 0.63002,3.09663 0.50037,4.53536 -0.055,0.61042 -0.21008,1.54195 -0.33969,2.04058 -0.23907,0.91971 -0.7578,2.19051 -1.207,2.95696 -0.0714,0.1219 -0.12991,0.2336 -0.12991,0.2482 0,0.0146 1.82795,1.84917 4.0621,4.0768 2.23416,2.22762 4.0621,4.06969 4.0621,4.09349 0,0.0517 -3.9875,4.02932 -4.05407,4.04399 -0.0254,0.006 -1.87618,-1.82011 -4.11286,-4.05713 z m -9.68341,-6.99639 c 1.6599,-0.12661 3.20941,-0.81129 4.46944,-1.9749 0.98222,-0.90706 1.79614,-2.28195 2.10414,-3.55434 0.34559,-1.42771 0.28242,-2.96912 -0.17508,-4.27188 -0.28769,-0.8192 -0.82647,-1.75239 -1.36386,-2.36223 -0.96234,-1.09209 -1.98807,-1.7858 -3.27035,-2.21175 -1.68774,-0.56064 -3.12825,-0.55032 -4.83801,0.0347 -1.51893,0.51968 -2.93115,1.64312 -3.78129,3.00807 -0.82935,1.33156 -1.20261,2.71884 -1.14063,4.23932 0.0447,1.09677 0.24482,1.92131 0.70883,2.92054 0.18081,0.38937 0.61993,1.08299 0.91128,1.43944 0.27163,0.33232 0.85013,0.90308 1.18826,1.17236 1.10757,0.88206 2.54614,1.4553 3.90953,1.55786 0.61086,0.0459 0.70978,0.0462 1.27774,0.003 z"
       id="path2113" />
  </g>
</svg>
